<svg width="422" height="238" viewBox="0 0 422 238" fill="none" xmlns="http://www.w3.org/2000/svg">
<g filter="url(#filter0_d)">
<rect width="402" height="213" rx="10" fill="url(#paint0_linear)"/>
</g>
<circle cx="343" cy="62" r="50" fill="#CFF6FD" fill-opacity="0.3"/>
<circle cx="265" cy="103" r="50" fill="#CFF6FD" fill-opacity="0.3"/>
<circle cx="315" cy="76" r="50" fill="#CFF6FD" fill-opacity="0.3"/>
<path d="M51.31 118.45C50.13 118.45 49.03 118.25 48.01 117.85C47.01 117.43 46.14 116.81 45.4 115.99C44.68 115.17 44.17 114.17 43.87 112.99L47.11 112.36C47.43 113.32 47.95 114.06 48.67 114.58C49.39 115.1 50.25 115.36 51.25 115.36C51.99 115.36 52.65 115.22 53.23 114.94C53.81 114.66 54.26 114.27 54.58 113.77C54.92 113.27 55.09 112.7 55.09 112.06C55.09 111.42 54.92 110.86 54.58 110.38C54.26 109.88 53.8 109.5 53.2 109.24C52.62 108.98 51.93 108.85 51.13 108.85H48.91V105.79H50.98C51.72 105.79 52.36 105.67 52.9 105.43C53.46 105.17 53.89 104.81 54.19 104.35C54.49 103.89 54.64 103.36 54.64 102.76C54.64 102.2 54.5 101.71 54.22 101.29C53.94 100.87 53.55 100.54 53.05 100.3C52.57 100.06 52 99.94 51.34 99.94C50.44 99.94 49.64 100.19 48.94 100.69C48.26 101.19 47.78 101.91 47.5 102.85L44.26 102.22C44.5 101.14 44.96 100.2 45.64 99.4C46.32 98.6 47.16 97.98 48.16 97.54C49.16 97.08 50.27 96.85 51.49 96.85C52.45 96.85 53.33 96.99 54.13 97.27C54.95 97.53 55.66 97.91 56.26 98.41C56.86 98.91 57.32 99.51 57.64 100.21C57.98 100.89 58.15 101.65 58.15 102.49C58.15 103.53 57.88 104.45 57.34 105.25C56.82 106.05 56.07 106.68 55.09 107.14C56.19 107.54 57.05 108.18 57.67 109.06C58.31 109.94 58.63 110.97 58.63 112.15C58.63 113.05 58.44 113.89 58.06 114.67C57.7 115.43 57.19 116.09 56.53 116.65C55.87 117.21 55.09 117.65 54.19 117.97C53.31 118.29 52.35 118.45 51.31 118.45ZM63.7729 118.12C63.3529 118.12 62.9729 118.02 62.6329 117.82C62.2929 117.62 62.0129 117.35 61.7929 117.01C61.5929 116.65 61.4929 116.26 61.4929 115.84C61.4929 115.42 61.5929 115.04 61.7929 114.7C62.0129 114.34 62.2929 114.06 62.6329 113.86C62.9729 113.66 63.3529 113.56 63.7729 113.56C64.1929 113.56 64.5729 113.66 64.9129 113.86C65.2529 114.06 65.5229 114.34 65.7229 114.7C65.9429 115.04 66.0529 115.42 66.0529 115.84C66.0529 116.26 65.9429 116.65 65.7229 117.01C65.5229 117.35 65.2529 117.62 64.9129 117.82C64.5729 118.02 64.1929 118.12 63.7729 118.12ZM69.3416 118V115.36C70.3616 114.52 71.2516 113.77 72.0116 113.11C72.7916 112.43 73.4816 111.81 74.0816 111.25C74.6816 110.69 75.2416 110.15 75.7616 109.63C76.6616 108.73 77.3816 107.94 77.9216 107.26C78.4816 106.58 78.8916 105.94 79.1516 105.34C79.4116 104.74 79.5416 104.12 79.5416 103.48C79.5416 102.78 79.4016 102.17 79.1216 101.65C78.8416 101.13 78.4516 100.73 77.9516 100.45C77.4716 100.15 76.9016 100 76.2416 100C75.3416 100 74.5616 100.29 73.9016 100.87C73.2416 101.43 72.7816 102.21 72.5216 103.21L69.2216 102.55C69.4816 101.41 69.9416 100.41 70.6016 99.55C71.2816 98.69 72.1116 98.03 73.0916 97.57C74.0916 97.09 75.1716 96.85 76.3316 96.85C77.3116 96.85 78.2116 97.02 79.0316 97.36C79.8516 97.68 80.5616 98.14 81.1616 98.74C81.7816 99.32 82.2516 100.01 82.5716 100.81C82.9116 101.59 83.0816 102.45 83.0816 103.39C83.0816 104.25 82.9216 105.09 82.6016 105.91C82.2816 106.73 81.7716 107.58 81.0716 108.46C80.3916 109.34 79.5116 110.31 78.4316 111.37C77.3116 112.47 76.0216 113.63 74.5616 114.85H83.4416V118H69.3416ZM88.4995 118L96.0895 100.51H85.7395V97.3H99.9595V100L92.3995 118H88.4995ZM110.099 118.45C108.899 118.45 107.819 118.21 106.859 117.73C105.899 117.23 105.079 116.51 104.399 115.57C103.719 114.63 103.199 113.5 102.839 112.18C102.499 110.86 102.329 109.38 102.329 107.74C102.329 106.04 102.509 104.52 102.869 103.18C103.249 101.84 103.789 100.7 104.489 99.76C105.189 98.82 106.029 98.1 107.009 97.6C107.989 97.1 109.079 96.85 110.279 96.85C111.499 96.85 112.579 97.1 113.519 97.6C114.479 98.1 115.289 98.82 115.949 99.76C116.609 100.7 117.109 101.83 117.449 103.15C117.809 104.45 117.989 105.92 117.989 107.56C117.989 109.24 117.809 110.75 117.449 112.09C117.089 113.43 116.559 114.58 115.859 115.54C115.179 116.48 114.349 117.2 113.369 117.7C112.409 118.2 111.319 118.45 110.099 118.45ZM110.159 115.21C111.499 115.21 112.539 114.56 113.279 113.26C114.039 111.94 114.419 110.07 114.419 107.65C114.419 105.23 114.039 103.37 113.279 102.07C112.539 100.75 111.499 100.09 110.159 100.09C108.819 100.09 107.769 100.75 107.009 102.07C106.269 103.37 105.899 105.23 105.899 107.65C105.899 110.07 106.269 111.94 107.009 113.26C107.769 114.56 108.819 115.21 110.159 115.21Z" fill="black"/>
<path d="M49.075 78.3C48.455 78.3 47.87 78.21 47.32 78.03C46.78 77.85 46.285 77.595 45.835 77.265C45.395 76.925 45.015 76.525 44.695 76.065C44.375 75.605 44.125 75.09 43.945 74.52C43.775 73.95 43.69 73.34 43.69 72.69C43.69 72.04 43.775 71.43 43.945 70.86C44.125 70.29 44.375 69.775 44.695 69.315C45.015 68.845 45.4 68.44 45.85 68.1C46.3 67.76 46.795 67.5 47.335 67.32C47.885 67.14 48.47 67.05 49.09 67.05C49.71 67.05 50.29 67.14 50.83 67.32C51.38 67.5 51.875 67.76 52.315 68.1C52.765 68.43 53.15 68.825 53.47 69.285C53.79 69.745 54.035 70.26 54.205 70.83C54.375 71.4 54.46 72.01 54.46 72.66C54.46 73.31 54.37 73.92 54.19 74.49C54.02 75.06 53.775 75.58 53.455 76.05C53.135 76.51 52.75 76.91 52.3 77.25C51.86 77.59 51.365 77.85 50.815 78.03C50.275 78.21 49.695 78.3 49.075 78.3ZM49.075 76.62C49.585 76.62 50.05 76.525 50.47 76.335C50.9 76.135 51.27 75.86 51.58 75.51C51.89 75.16 52.13 74.745 52.3 74.265C52.48 73.775 52.57 73.245 52.57 72.675C52.57 72.105 52.48 71.58 52.3 71.1C52.13 70.61 51.89 70.19 51.58 69.84C51.27 69.49 50.9 69.22 50.47 69.03C50.05 68.83 49.585 68.73 49.075 68.73C48.565 68.73 48.095 68.83 47.665 69.03C47.245 69.22 46.88 69.49 46.57 69.84C46.26 70.19 46.015 70.61 45.835 71.1C45.665 71.58 45.58 72.105 45.58 72.675C45.58 73.245 45.665 73.775 45.835 74.265C46.015 74.745 46.26 75.16 46.57 75.51C46.88 75.86 47.245 76.135 47.665 76.335C48.095 76.525 48.565 76.62 49.075 76.62ZM56.0736 78V70.155H57.6486L57.7236 71.445C57.9236 71.005 58.1986 70.665 58.5486 70.425C58.9086 70.175 59.3286 70.05 59.8086 70.05C59.9586 70.05 60.1036 70.06 60.2436 70.08C60.3836 70.1 60.5086 70.135 60.6186 70.185L60.4236 71.865C60.3136 71.825 60.1986 71.8 60.0786 71.79C59.9586 71.77 59.8386 71.76 59.7186 71.76C59.1186 71.76 58.6486 71.96 58.3086 72.36C57.9686 72.76 57.7986 73.315 57.7986 74.025V78H56.0736ZM64.9696 78.225C64.4496 78.225 63.9646 78.12 63.5146 77.91C63.0746 77.7 62.6896 77.41 62.3596 77.04C62.0296 76.67 61.7696 76.235 61.5796 75.735C61.3996 75.235 61.3096 74.695 61.3096 74.115C61.3096 73.525 61.4046 72.975 61.5946 72.465C61.7846 71.955 62.0496 71.51 62.3896 71.13C62.7296 70.75 63.1246 70.455 63.5746 70.245C64.0346 70.035 64.5296 69.93 65.0596 69.93C65.5796 69.93 66.0546 70.04 66.4846 70.26C66.9146 70.48 67.2696 70.79 67.5496 71.19V66.84H69.2746V78H67.6996L67.6246 76.74C67.3446 77.2 66.9746 77.565 66.5146 77.835C66.0546 78.095 65.5396 78.225 64.9696 78.225ZM65.3296 76.665C65.7596 76.665 66.1446 76.555 66.4846 76.335C66.8246 76.105 67.0896 75.795 67.2796 75.405C67.4796 75.015 67.5796 74.575 67.5796 74.085C67.5796 73.585 67.4796 73.14 67.2796 72.75C67.0896 72.36 66.8246 72.055 66.4846 71.835C66.1446 71.605 65.7596 71.49 65.3296 71.49C64.8996 71.49 64.5146 71.605 64.1746 71.835C63.8346 72.055 63.5646 72.36 63.3646 72.75C63.1746 73.14 63.0796 73.585 63.0796 74.085C63.0796 74.575 63.1746 75.015 63.3646 75.405C63.5646 75.795 63.8346 76.105 64.1746 76.335C64.5146 76.555 64.8996 76.665 65.3296 76.665ZM74.7771 78.225C74.1971 78.225 73.6621 78.125 73.1721 77.925C72.6921 77.715 72.2721 77.425 71.9121 77.055C71.5521 76.685 71.2721 76.25 71.0721 75.75C70.8821 75.24 70.7871 74.68 70.7871 74.07C70.7871 73.48 70.8821 72.935 71.0721 72.435C71.2721 71.935 71.5421 71.5 71.8821 71.13C72.2321 70.75 72.6421 70.455 73.1121 70.245C73.5821 70.035 74.0921 69.93 74.6421 69.93C75.1921 69.93 75.6921 70.03 76.1421 70.23C76.6021 70.42 76.9971 70.695 77.3271 71.055C77.6671 71.415 77.9271 71.845 78.1071 72.345C78.2871 72.835 78.3771 73.38 78.3771 73.98V74.49H72.5721C72.6221 74.95 72.7421 75.35 72.9321 75.69C73.1321 76.02 73.3871 76.275 73.6971 76.455C74.0071 76.635 74.3671 76.725 74.7771 76.725C75.5971 76.725 76.2371 76.36 76.6971 75.63L78.2121 76.215C78.0321 76.625 77.7671 76.985 77.4171 77.295C77.0771 77.595 76.6771 77.825 76.2171 77.985C75.7671 78.145 75.2871 78.225 74.7771 78.225ZM74.6421 71.325C74.2921 71.325 73.9771 71.405 73.6971 71.565C73.4271 71.725 73.1971 71.95 73.0071 72.24C72.8171 72.53 72.6871 72.87 72.6171 73.26H76.5771C76.5171 72.87 76.4021 72.53 76.2321 72.24C76.0621 71.95 75.8371 71.725 75.5571 71.565C75.2871 71.405 74.9821 71.325 74.6421 71.325ZM79.848 78V70.155H81.423L81.498 71.445C81.698 71.005 81.973 70.665 82.323 70.425C82.683 70.175 83.103 70.05 83.583 70.05C83.733 70.05 83.878 70.06 84.018 70.08C84.158 70.1 84.283 70.135 84.393 70.185L84.198 71.865C84.088 71.825 83.973 71.8 83.853 71.79C83.733 71.77 83.613 71.76 83.493 71.76C82.893 71.76 82.423 71.96 82.083 72.36C81.743 72.76 81.573 73.315 81.573 74.025V78H79.848ZM88.3484 78.225C87.8384 78.225 87.3634 78.14 86.9234 77.97C86.4934 77.8 86.1234 77.56 85.8134 77.25C85.5134 76.93 85.2984 76.555 85.1684 76.125L86.7284 75.72C86.8584 76.06 87.0684 76.325 87.3584 76.515C87.6484 76.705 87.9834 76.8 88.3634 76.8C88.7534 76.8 89.0734 76.71 89.3234 76.53C89.5734 76.34 89.6984 76.1 89.6984 75.81C89.6984 75.56 89.5984 75.35 89.3984 75.18C89.1984 75.01 88.8734 74.885 88.4234 74.805L87.9284 74.715C87.0884 74.565 86.4534 74.295 86.0234 73.905C85.6034 73.515 85.3934 73.015 85.3934 72.405C85.3934 71.915 85.5184 71.485 85.7684 71.115C86.0184 70.745 86.3634 70.455 86.8034 70.245C87.2434 70.035 87.7484 69.93 88.3184 69.93C88.8084 69.93 89.2584 70.015 89.6684 70.185C90.0784 70.355 90.4234 70.595 90.7034 70.905C90.9834 71.215 91.1834 71.58 91.3034 72L89.7584 72.375C89.6384 72.055 89.4484 71.805 89.1884 71.625C88.9384 71.435 88.6434 71.34 88.3034 71.34C87.9534 71.34 87.6634 71.43 87.4334 71.61C87.2034 71.78 87.0884 72 87.0884 72.27C87.0884 72.5 87.1884 72.69 87.3884 72.84C87.5984 72.99 87.9484 73.11 88.4384 73.2L88.9334 73.29C89.7334 73.43 90.3484 73.705 90.7784 74.115C91.2084 74.525 91.4234 75.035 91.4234 75.645C91.4234 76.015 91.3484 76.36 91.1984 76.68C91.0484 76.99 90.8334 77.265 90.5534 77.505C90.2834 77.735 89.9584 77.91 89.5784 78.03C89.2084 78.16 88.7984 78.225 88.3484 78.225Z" fill="black"/>
<path d="M44.245 146.595V145.14H46.705V142.65H48.205V145.14H50.665V146.595H48.205V149.175H46.705V146.595H44.245ZM56.0763 150.225C55.4763 150.225 54.9263 150.115 54.4263 149.895C53.9363 149.675 53.5163 149.365 53.1663 148.965C52.8163 148.555 52.5713 148.08 52.4313 147.54L54.0813 147.255C54.2413 147.705 54.4963 148.055 54.8463 148.305C55.2063 148.555 55.6163 148.68 56.0763 148.68C56.4463 148.68 56.7763 148.6 57.0663 148.44C57.3663 148.27 57.5963 148.045 57.7563 147.765C57.9263 147.475 58.0113 147.145 58.0113 146.775C58.0113 146.415 57.9263 146.095 57.7563 145.815C57.5963 145.535 57.3713 145.315 57.0813 145.155C56.7913 144.995 56.4613 144.915 56.0913 144.915C55.7713 144.915 55.4613 144.98 55.1613 145.11C54.8613 145.23 54.6113 145.39 54.4113 145.59L53.0013 145.44V139.65H59.0163V141.255H54.6513V143.94C55.1213 143.56 55.7113 143.37 56.4213 143.37C56.9013 143.37 57.3463 143.455 57.7563 143.625C58.1663 143.795 58.5213 144.035 58.8213 144.345C59.1213 144.645 59.3563 145 59.5263 145.41C59.6963 145.82 59.7813 146.265 59.7813 146.745C59.7813 147.245 59.6863 147.71 59.4963 148.14C59.3063 148.56 59.0413 148.93 58.7013 149.25C58.3613 149.56 57.9663 149.8 57.5163 149.97C57.0763 150.14 56.5963 150.225 56.0763 150.225ZM62.9597 144.195C62.5097 144.195 62.1097 144.095 61.7597 143.895C61.4097 143.695 61.1297 143.42 60.9197 143.07C60.7197 142.72 60.6197 142.32 60.6197 141.87C60.6197 141.42 60.7197 141.02 60.9197 140.67C61.1297 140.31 61.4147 140.03 61.7747 139.83C62.1347 139.62 62.5397 139.515 62.9897 139.515C63.4397 139.515 63.8397 139.62 64.1897 139.83C64.5397 140.03 64.8147 140.305 65.0147 140.655C65.2247 141.005 65.3297 141.405 65.3297 141.855C65.3297 142.305 65.2247 142.705 65.0147 143.055C64.8147 143.405 64.5347 143.685 64.1747 143.895C63.8147 144.095 63.4097 144.195 62.9597 144.195ZM63.1547 150H61.7147L68.1797 139.65H69.6197L63.1547 150ZM61.9547 141.855C61.9547 142.085 61.9997 142.29 62.0897 142.47C62.1797 142.64 62.2997 142.775 62.4497 142.875C62.5997 142.975 62.7747 143.025 62.9747 143.025C63.1747 143.025 63.3497 142.975 63.4997 142.875C63.6497 142.775 63.7697 142.64 63.8597 142.47C63.9497 142.29 63.9947 142.085 63.9947 141.855C63.9947 141.625 63.9497 141.425 63.8597 141.255C63.7697 141.075 63.6497 140.935 63.4997 140.835C63.3497 140.735 63.1747 140.685 62.9747 140.685C62.7747 140.685 62.5997 140.735 62.4497 140.835C62.2997 140.935 62.1797 141.075 62.0897 141.255C61.9997 141.425 61.9547 141.625 61.9547 141.855ZM68.3447 150.135C67.9047 150.135 67.5047 150.035 67.1447 149.835C66.7947 149.635 66.5147 149.36 66.3047 149.01C66.1047 148.66 66.0047 148.26 66.0047 147.81C66.0047 147.36 66.1047 146.96 66.3047 146.61C66.5147 146.25 66.7947 145.97 67.1447 145.77C67.5047 145.56 67.9147 145.455 68.3747 145.455C68.8147 145.455 69.2097 145.56 69.5597 145.77C69.9197 145.97 70.1997 146.245 70.3997 146.595C70.6097 146.945 70.7147 147.345 70.7147 147.795C70.7147 148.245 70.6097 148.645 70.3997 148.995C70.1997 149.345 69.9197 149.625 69.5597 149.835C69.2097 150.035 68.8047 150.135 68.3447 150.135ZM68.3597 148.965C68.5497 148.965 68.7197 148.915 68.8697 148.815C69.0297 148.715 69.1547 148.58 69.2447 148.41C69.3347 148.23 69.3797 148.025 69.3797 147.795C69.3797 147.565 69.3347 147.365 69.2447 147.195C69.1547 147.015 69.0297 146.875 68.8697 146.775C68.7197 146.675 68.5497 146.625 68.3597 146.625C68.1697 146.625 67.9947 146.675 67.8347 146.775C67.6847 146.875 67.5647 147.015 67.4747 147.195C67.3847 147.365 67.3397 147.565 67.3397 147.795C67.3397 148.025 67.3847 148.23 67.4747 148.41C67.5647 148.58 67.6847 148.715 67.8347 148.815C67.9947 148.915 68.1697 148.965 68.3597 148.965ZM75.4855 150V139.35H77.3155V148.365H81.8305V150H75.4855ZM85.7489 150.225C85.3489 150.225 84.9789 150.165 84.6389 150.045C84.3089 149.925 84.0189 149.755 83.7689 149.535C83.5189 149.315 83.3239 149.055 83.1839 148.755C83.0439 148.455 82.9739 148.125 82.9739 147.765C82.9739 147.265 83.1039 146.83 83.3639 146.46C83.6339 146.08 84.0089 145.785 84.4889 145.575C84.9689 145.365 85.5289 145.26 86.1689 145.26C86.5189 145.26 86.8539 145.295 87.1739 145.365C87.4939 145.425 87.7989 145.515 88.0889 145.635V145.14C88.0889 144.79 88.0239 144.485 87.8939 144.225C87.7639 143.955 87.5789 143.745 87.3389 143.595C87.0989 143.445 86.8089 143.37 86.4689 143.37C86.1089 143.37 85.7839 143.465 85.4939 143.655C85.2039 143.845 84.9889 144.11 84.8489 144.45L83.2589 144.09C83.3789 143.65 83.5939 143.27 83.9039 142.95C84.2239 142.63 84.6039 142.38 85.0439 142.2C85.4939 142.02 85.9789 141.93 86.4989 141.93C86.9889 141.93 87.4339 142.01 87.8339 142.17C88.2439 142.33 88.5939 142.555 88.8839 142.845C89.1739 143.135 89.3989 143.48 89.5589 143.88C89.7189 144.28 89.7989 144.725 89.7989 145.215V150H88.2239L88.1639 148.965C87.9539 149.345 87.6389 149.65 87.2189 149.88C86.7989 150.11 86.3089 150.225 85.7489 150.225ZM84.7139 147.69C84.7139 147.91 84.7739 148.11 84.8939 148.29C85.0139 148.46 85.1789 148.595 85.3889 148.695C85.6089 148.795 85.8639 148.845 86.1539 148.845C86.5239 148.845 86.8539 148.765 87.1439 148.605C87.4339 148.445 87.6639 148.23 87.8339 147.96C88.0039 147.68 88.0889 147.365 88.0889 147.015V146.835C87.8289 146.725 87.5589 146.64 87.2789 146.58C87.0089 146.51 86.7289 146.475 86.4389 146.475C85.9189 146.475 85.4989 146.585 85.1789 146.805C84.8689 147.025 84.7139 147.32 84.7139 147.69ZM94.3396 150.225C93.8296 150.225 93.3546 150.14 92.9146 149.97C92.4846 149.8 92.1146 149.56 91.8046 149.25C91.5046 148.93 91.2896 148.555 91.1596 148.125L92.7196 147.72C92.8496 148.06 93.0596 148.325 93.3496 148.515C93.6396 148.705 93.9746 148.8 94.3546 148.8C94.7446 148.8 95.0646 148.71 95.3146 148.53C95.5646 148.34 95.6896 148.1 95.6896 147.81C95.6896 147.56 95.5896 147.35 95.3896 147.18C95.1896 147.01 94.8646 146.885 94.4146 146.805L93.9196 146.715C93.0796 146.565 92.4446 146.295 92.0146 145.905C91.5946 145.515 91.3846 145.015 91.3846 144.405C91.3846 143.915 91.5096 143.485 91.7596 143.115C92.0096 142.745 92.3546 142.455 92.7946 142.245C93.2346 142.035 93.7396 141.93 94.3096 141.93C94.7996 141.93 95.2496 142.015 95.6596 142.185C96.0696 142.355 96.4146 142.595 96.6946 142.905C96.9746 143.215 97.1746 143.58 97.2946 144L95.7496 144.375C95.6296 144.055 95.4396 143.805 95.1796 143.625C94.9296 143.435 94.6346 143.34 94.2946 143.34C93.9446 143.34 93.6546 143.43 93.4246 143.61C93.1946 143.78 93.0796 144 93.0796 144.27C93.0796 144.5 93.1796 144.69 93.3796 144.84C93.5896 144.99 93.9396 145.11 94.4296 145.2L94.9246 145.29C95.7246 145.43 96.3396 145.705 96.7696 146.115C97.1996 146.525 97.4146 147.035 97.4146 147.645C97.4146 148.015 97.3396 148.36 97.1896 148.68C97.0396 148.99 96.8246 149.265 96.5446 149.505C96.2746 149.735 95.9496 149.91 95.5696 150.03C95.1996 150.16 94.7896 150.225 94.3396 150.225ZM101.984 150.225C101.194 150.225 100.574 150 100.124 149.55C99.6745 149.09 99.4495 148.435 99.4495 147.585V143.55H98.0695V142.155H99.4495V139.5H101.174V142.155H103.454V143.55H101.174V147.405C101.174 147.825 101.259 148.15 101.429 148.38C101.609 148.6 101.869 148.71 102.209 148.71C102.389 148.71 102.584 148.685 102.794 148.635C103.004 148.575 103.199 148.495 103.379 148.395L103.769 149.7C103.539 149.86 103.269 149.985 102.959 150.075C102.659 150.175 102.334 150.225 101.984 150.225ZM122.365 139.35L119.215 150H117.355L115.12 141.9L112.885 150H111.01L107.86 139.35H109.81L112 147.57L114.25 139.35H116.02L118.285 147.57L120.46 139.35H122.365ZM126.53 150.225C125.95 150.225 125.415 150.125 124.925 149.925C124.445 149.715 124.025 149.425 123.665 149.055C123.305 148.685 123.025 148.25 122.825 147.75C122.635 147.24 122.54 146.68 122.54 146.07C122.54 145.48 122.635 144.935 122.825 144.435C123.025 143.935 123.295 143.5 123.635 143.13C123.985 142.75 124.395 142.455 124.865 142.245C125.335 142.035 125.845 141.93 126.395 141.93C126.945 141.93 127.445 142.03 127.895 142.23C128.355 142.42 128.75 142.695 129.08 143.055C129.42 143.415 129.68 143.845 129.86 144.345C130.04 144.835 130.13 145.38 130.13 145.98V146.49H124.325C124.375 146.95 124.495 147.35 124.685 147.69C124.885 148.02 125.14 148.275 125.45 148.455C125.76 148.635 126.12 148.725 126.53 148.725C127.35 148.725 127.99 148.36 128.45 147.63L129.965 148.215C129.785 148.625 129.52 148.985 129.17 149.295C128.83 149.595 128.43 149.825 127.97 149.985C127.52 150.145 127.04 150.225 126.53 150.225ZM126.395 143.325C126.045 143.325 125.73 143.405 125.45 143.565C125.18 143.725 124.95 143.95 124.76 144.24C124.57 144.53 124.44 144.87 124.37 145.26H128.33C128.27 144.87 128.155 144.53 127.985 144.24C127.815 143.95 127.59 143.725 127.31 143.565C127.04 143.405 126.735 143.325 126.395 143.325ZM135.319 150.225C134.739 150.225 134.204 150.125 133.714 149.925C133.234 149.715 132.814 149.425 132.454 149.055C132.094 148.685 131.814 148.25 131.614 147.75C131.424 147.24 131.329 146.68 131.329 146.07C131.329 145.48 131.424 144.935 131.614 144.435C131.814 143.935 132.084 143.5 132.424 143.13C132.774 142.75 133.184 142.455 133.654 142.245C134.124 142.035 134.634 141.93 135.184 141.93C135.734 141.93 136.234 142.03 136.684 142.23C137.144 142.42 137.539 142.695 137.869 143.055C138.209 143.415 138.469 143.845 138.649 144.345C138.829 144.835 138.919 145.38 138.919 145.98V146.49H133.114C133.164 146.95 133.284 147.35 133.474 147.69C133.674 148.02 133.929 148.275 134.239 148.455C134.549 148.635 134.909 148.725 135.319 148.725C136.139 148.725 136.779 148.36 137.239 147.63L138.754 148.215C138.574 148.625 138.309 148.985 137.959 149.295C137.619 149.595 137.219 149.825 136.759 149.985C136.309 150.145 135.829 150.225 135.319 150.225ZM135.184 143.325C134.834 143.325 134.519 143.405 134.239 143.565C133.969 143.725 133.739 143.95 133.549 144.24C133.359 144.53 133.229 144.87 133.159 145.26H137.119C137.059 144.87 136.944 144.53 136.774 144.24C136.604 143.95 136.379 143.725 136.099 143.565C135.829 143.405 135.524 143.325 135.184 143.325ZM140.39 150V138.84H142.115V145.395L145.325 142.155H147.425L143.9 145.635L147.785 150H145.52L142.115 146.04V150H140.39Z" fill="black"/>
<defs>
<filter id="filter0_d" x="0" y="0" width="422" height="238" filterUnits="userSpaceOnUse" color-interpolation-filters="sRGB">
<feFlood flood-opacity="0" result="BackgroundImageFix"/>
<feColorMatrix in="SourceAlpha" type="matrix" values="0 0 0 0 0 0 0 0 0 0 0 0 0 0 0 0 0 0 127 0" result="hardAlpha"/>
<feOffset dx="10" dy="15"/>
<feGaussianBlur stdDeviation="5"/>
<feColorMatrix type="matrix" values="0 0 0 0 0.160784 0 0 0 0 0.87451 0 0 0 0 1 0 0 0 0.25 0"/>
<feBlend mode="normal" in2="BackgroundImageFix" result="effect1_dropShadow"/>
<feBlend mode="normal" in="SourceGraphic" in2="effect1_dropShadow" result="shape"/>
</filter>
<linearGradient id="paint0_linear" x1="338" y1="249" x2="-182" y2="106" gradientUnits="userSpaceOnUse">
<stop offset="0.150683" stop-color="#29DFFF"/>
<stop offset="1" stop-color="#29DFFF" stop-opacity="0"/>
</linearGradient>
</defs>
</svg>
