<svg width="422" height="238" viewBox="0 0 422 238" fill="none" xmlns="http://www.w3.org/2000/svg">
<g filter="url(#filter0_d)">
<rect width="402" height="213" rx="10" fill="url(#paint0_linear)"/>
</g>
<circle cx="343" cy="62" r="50" fill="#FDD3E4" fill-opacity="0.3"/>
<circle cx="265" cy="103" r="50" fill="#FDD3E4" fill-opacity="0.3"/>
<circle cx="315" cy="76" r="50" fill="#FDD3E4" fill-opacity="0.3"/>
<path d="M45.1 115V93.7H51.52C53.22 93.7 54.68 93.97 55.9 94.51C57.14 95.05 58.09 95.82 58.75 96.82C59.41 97.82 59.74 99.01 59.74 100.39C59.74 101.25 59.58 102.06 59.26 102.82C58.96 103.56 58.52 104.23 57.94 104.83C57.38 105.43 56.7 105.92 55.9 106.3L60.85 115H56.8L52.69 107.26C52.47 107.28 52.22 107.3 51.94 107.32C51.68 107.32 51.41 107.32 51.13 107.32C50.43 107.32 49.62 107.25 48.7 107.11V115H45.1ZM48.7 96.88V103.93C49.12 104.01 49.55 104.07 49.99 104.11C50.45 104.13 50.9 104.14 51.34 104.14C52.82 104.14 53.97 103.82 54.79 103.18C55.61 102.54 56.02 101.65 56.02 100.51C56.02 99.37 55.62 98.48 54.82 97.84C54.02 97.2 52.9 96.88 51.46 96.88H48.7ZM63.4049 120.94V99.31H66.5549L66.7049 101.83C67.2649 100.91 68.0049 100.19 68.9249 99.67C69.8449 99.13 70.8749 98.86 72.0149 98.86C73.0549 98.86 74.0149 99.07 74.8949 99.49C75.7949 99.91 76.5749 100.49 77.2349 101.23C77.8949 101.97 78.4049 102.84 78.7649 103.84C79.1449 104.84 79.3349 105.92 79.3349 107.08C79.3349 108.26 79.1449 109.36 78.7649 110.38C78.3849 111.4 77.8549 112.29 77.1749 113.05C76.4949 113.81 75.6949 114.4 74.7749 114.82C73.8749 115.24 72.8949 115.45 71.8349 115.45C70.7949 115.45 69.8449 115.23 68.9849 114.79C68.1249 114.35 67.4149 113.73 66.8549 112.93V120.94H63.4049ZM71.2949 112.33C72.1549 112.33 72.9249 112.11 73.6049 111.67C74.2849 111.21 74.8149 110.59 75.1949 109.81C75.5949 109.03 75.7949 108.14 75.7949 107.14C75.7949 106.14 75.5949 105.26 75.1949 104.5C74.8149 103.72 74.2849 103.11 73.6049 102.67C72.9249 102.21 72.1549 101.98 71.2949 101.98C70.4349 101.98 69.6649 102.21 68.9849 102.67C68.3049 103.11 67.7649 103.72 67.3649 104.5C66.9849 105.26 66.7949 106.14 66.7949 107.14C66.7949 108.14 66.9849 109.03 67.3649 109.81C67.7649 110.59 68.3049 111.21 68.9849 111.67C69.6649 112.11 70.4349 112.33 71.2949 112.33ZM83.8705 115.12C83.4505 115.12 83.0705 115.02 82.7305 114.82C82.3905 114.62 82.1105 114.35 81.8905 114.01C81.6905 113.65 81.5905 113.26 81.5905 112.84C81.5905 112.42 81.6905 112.04 81.8905 111.7C82.1105 111.34 82.3905 111.06 82.7305 110.86C83.0705 110.66 83.4505 110.56 83.8705 110.56C84.2905 110.56 84.6705 110.66 85.0105 110.86C85.3505 111.06 85.6205 111.34 85.8205 111.7C86.0405 112.04 86.1505 112.42 86.1505 112.84C86.1505 113.26 86.0405 113.65 85.8205 114.01C85.6205 114.35 85.3505 114.62 85.0105 114.82C84.6705 115.02 84.2905 115.12 83.8705 115.12ZM100.364 115V98.11L95.8645 100.63L94.6345 97.72L100.904 94.3H103.844V115H100.364ZM110.794 115.12C110.374 115.12 109.994 115.02 109.654 114.82C109.314 114.62 109.034 114.35 108.814 114.01C108.614 113.65 108.514 113.26 108.514 112.84C108.514 112.42 108.614 112.04 108.814 111.7C109.034 111.34 109.314 111.06 109.654 110.86C109.994 110.66 110.374 110.56 110.794 110.56C111.214 110.56 111.594 110.66 111.934 110.86C112.274 111.06 112.544 111.34 112.744 111.7C112.964 112.04 113.074 112.42 113.074 112.84C113.074 113.26 112.964 113.65 112.744 114.01C112.544 114.35 112.274 114.62 111.934 114.82C111.594 115.02 111.214 115.12 110.794 115.12ZM123.136 115.45C121.936 115.45 120.856 115.21 119.896 114.73C118.936 114.23 118.116 113.51 117.436 112.57C116.756 111.63 116.236 110.5 115.876 109.18C115.536 107.86 115.366 106.38 115.366 104.74C115.366 103.04 115.546 101.52 115.906 100.18C116.286 98.84 116.826 97.7 117.526 96.76C118.226 95.82 119.066 95.1 120.046 94.6C121.026 94.1 122.116 93.85 123.316 93.85C124.536 93.85 125.616 94.1 126.556 94.6C127.516 95.1 128.326 95.82 128.986 96.76C129.646 97.7 130.146 98.83 130.486 100.15C130.846 101.45 131.026 102.92 131.026 104.56C131.026 106.24 130.846 107.75 130.486 109.09C130.126 110.43 129.596 111.58 128.896 112.54C128.216 113.48 127.386 114.2 126.406 114.7C125.446 115.2 124.356 115.45 123.136 115.45ZM123.196 112.21C124.536 112.21 125.576 111.56 126.316 110.26C127.076 108.94 127.456 107.07 127.456 104.65C127.456 102.23 127.076 100.37 126.316 99.07C125.576 97.75 124.536 97.09 123.196 97.09C121.856 97.09 120.806 97.75 120.046 99.07C119.306 100.37 118.936 102.23 118.936 104.65C118.936 107.07 119.306 108.94 120.046 110.26C120.806 111.56 121.856 112.21 123.196 112.21ZM141.505 115.45C140.305 115.45 139.225 115.21 138.265 114.73C137.305 114.23 136.485 113.51 135.805 112.57C135.125 111.63 134.605 110.5 134.245 109.18C133.905 107.86 133.735 106.38 133.735 104.74C133.735 103.04 133.915 101.52 134.275 100.18C134.655 98.84 135.195 97.7 135.895 96.76C136.595 95.82 137.435 95.1 138.415 94.6C139.395 94.1 140.485 93.85 141.685 93.85C142.905 93.85 143.985 94.1 144.925 94.6C145.885 95.1 146.695 95.82 147.355 96.76C148.015 97.7 148.515 98.83 148.855 100.15C149.215 101.45 149.395 102.92 149.395 104.56C149.395 106.24 149.215 107.75 148.855 109.09C148.495 110.43 147.965 111.58 147.265 112.54C146.585 113.48 145.755 114.2 144.775 114.7C143.815 115.2 142.725 115.45 141.505 115.45ZM141.565 112.21C142.905 112.21 143.945 111.56 144.685 110.26C145.445 108.94 145.825 107.07 145.825 104.65C145.825 102.23 145.445 100.37 144.685 99.07C143.945 97.75 142.905 97.09 141.565 97.09C140.225 97.09 139.175 97.75 138.415 99.07C137.675 100.37 137.305 102.23 137.305 104.65C137.305 107.07 137.675 108.94 138.415 110.26C139.175 111.56 140.225 112.21 141.565 112.21ZM159.874 115.45C158.674 115.45 157.594 115.21 156.634 114.73C155.674 114.23 154.854 113.51 154.174 112.57C153.494 111.63 152.974 110.5 152.614 109.18C152.274 107.86 152.104 106.38 152.104 104.74C152.104 103.04 152.284 101.52 152.644 100.18C153.024 98.84 153.564 97.7 154.264 96.76C154.964 95.82 155.804 95.1 156.784 94.6C157.764 94.1 158.854 93.85 160.054 93.85C161.274 93.85 162.354 94.1 163.294 94.6C164.254 95.1 165.064 95.82 165.724 96.76C166.384 97.7 166.884 98.83 167.224 100.15C167.584 101.45 167.764 102.92 167.764 104.56C167.764 106.24 167.584 107.75 167.224 109.09C166.864 110.43 166.334 111.58 165.634 112.54C164.954 113.48 164.124 114.2 163.144 114.7C162.184 115.2 161.094 115.45 159.874 115.45ZM159.934 112.21C161.274 112.21 162.314 111.56 163.054 110.26C163.814 108.94 164.194 107.07 164.194 104.65C164.194 102.23 163.814 100.37 163.054 99.07C162.314 97.75 161.274 97.09 159.934 97.09C158.594 97.09 157.544 97.75 156.784 99.07C156.044 100.37 155.674 102.23 155.674 104.65C155.674 107.07 156.044 108.94 156.784 110.26C157.544 111.56 158.594 112.21 159.934 112.21ZM172.347 115.12C171.927 115.12 171.547 115.02 171.207 114.82C170.867 114.62 170.587 114.35 170.367 114.01C170.167 113.65 170.067 113.26 170.067 112.84C170.067 112.42 170.167 112.04 170.367 111.7C170.587 111.34 170.867 111.06 171.207 110.86C171.547 110.66 171.927 110.56 172.347 110.56C172.767 110.56 173.147 110.66 173.487 110.86C173.827 111.06 174.097 111.34 174.297 111.7C174.517 112.04 174.627 112.42 174.627 112.84C174.627 113.26 174.517 113.65 174.297 114.01C174.097 114.35 173.827 114.62 173.487 114.82C173.147 115.02 172.767 115.12 172.347 115.12ZM184.688 115.45C183.488 115.45 182.408 115.21 181.448 114.73C180.488 114.23 179.668 113.51 178.988 112.57C178.308 111.63 177.788 110.5 177.428 109.18C177.088 107.86 176.918 106.38 176.918 104.74C176.918 103.04 177.098 101.52 177.458 100.18C177.838 98.84 178.378 97.7 179.078 96.76C179.778 95.82 180.618 95.1 181.598 94.6C182.578 94.1 183.668 93.85 184.868 93.85C186.088 93.85 187.168 94.1 188.108 94.6C189.068 95.1 189.878 95.82 190.538 96.76C191.198 97.7 191.698 98.83 192.038 100.15C192.398 101.45 192.578 102.92 192.578 104.56C192.578 106.24 192.398 107.75 192.038 109.09C191.678 110.43 191.148 111.58 190.448 112.54C189.768 113.48 188.938 114.2 187.958 114.7C186.998 115.2 185.908 115.45 184.688 115.45ZM184.748 112.21C186.088 112.21 187.128 111.56 187.868 110.26C188.628 108.94 189.008 107.07 189.008 104.65C189.008 102.23 188.628 100.37 187.868 99.07C187.128 97.75 186.088 97.09 184.748 97.09C183.408 97.09 182.358 97.75 181.598 99.07C180.858 100.37 180.488 102.23 180.488 104.65C180.488 107.07 180.858 108.94 181.598 110.26C182.358 111.56 183.408 112.21 184.748 112.21ZM203.058 115.45C201.858 115.45 200.778 115.21 199.818 114.73C198.858 114.23 198.038 113.51 197.358 112.57C196.678 111.63 196.158 110.5 195.798 109.18C195.458 107.86 195.288 106.38 195.288 104.74C195.288 103.04 195.468 101.52 195.828 100.18C196.208 98.84 196.748 97.7 197.448 96.76C198.148 95.82 198.988 95.1 199.968 94.6C200.948 94.1 202.038 93.85 203.238 93.85C204.458 93.85 205.538 94.1 206.478 94.6C207.438 95.1 208.248 95.82 208.908 96.76C209.568 97.7 210.068 98.83 210.408 100.15C210.768 101.45 210.948 102.92 210.948 104.56C210.948 106.24 210.768 107.75 210.408 109.09C210.048 110.43 209.518 111.58 208.818 112.54C208.138 113.48 207.308 114.2 206.328 114.7C205.368 115.2 204.278 115.45 203.058 115.45ZM203.118 112.21C204.458 112.21 205.498 111.56 206.238 110.26C206.998 108.94 207.378 107.07 207.378 104.65C207.378 102.23 206.998 100.37 206.238 99.07C205.498 97.75 204.458 97.09 203.118 97.09C201.778 97.09 200.728 97.75 199.968 99.07C199.228 100.37 198.858 102.23 198.858 104.65C198.858 107.07 199.228 108.94 199.968 110.26C200.728 111.56 201.778 112.21 203.118 112.21ZM221.427 115.45C220.227 115.45 219.147 115.21 218.187 114.73C217.227 114.23 216.407 113.51 215.727 112.57C215.047 111.63 214.527 110.5 214.167 109.18C213.827 107.86 213.657 106.38 213.657 104.74C213.657 103.04 213.837 101.52 214.197 100.18C214.577 98.84 215.117 97.7 215.817 96.76C216.517 95.82 217.357 95.1 218.337 94.6C219.317 94.1 220.407 93.85 221.607 93.85C222.827 93.85 223.907 94.1 224.847 94.6C225.807 95.1 226.617 95.82 227.277 96.76C227.937 97.7 228.437 98.83 228.777 100.15C229.137 101.45 229.317 102.92 229.317 104.56C229.317 106.24 229.137 107.75 228.777 109.09C228.417 110.43 227.887 111.58 227.187 112.54C226.507 113.48 225.677 114.2 224.697 114.7C223.737 115.2 222.647 115.45 221.427 115.45ZM221.487 112.21C222.827 112.21 223.867 111.56 224.607 110.26C225.367 108.94 225.747 107.07 225.747 104.65C225.747 102.23 225.367 100.37 224.607 99.07C223.867 97.75 222.827 97.09 221.487 97.09C220.147 97.09 219.097 97.75 218.337 99.07C217.597 100.37 217.227 102.23 217.227 104.65C217.227 107.07 217.597 108.94 218.337 110.26C219.097 111.56 220.147 112.21 221.487 112.21Z" fill="black"/>
<path d="M44.245 143.595V142.14H46.705V139.65H48.205V142.14H50.665V143.595H48.205V146.175H46.705V143.595H44.245ZM52.6113 147V145.68C53.1213 145.26 53.5663 144.885 53.9463 144.555C54.3363 144.215 54.6813 143.905 54.9813 143.625C55.2813 143.345 55.5613 143.075 55.8213 142.815C56.2713 142.365 56.6313 141.97 56.9013 141.63C57.1813 141.29 57.3863 140.97 57.5163 140.67C57.6463 140.37 57.7113 140.06 57.7113 139.74C57.7113 139.39 57.6413 139.085 57.5013 138.825C57.3613 138.565 57.1663 138.365 56.9163 138.225C56.6763 138.075 56.3913 138 56.0613 138C55.6113 138 55.2213 138.145 54.8913 138.435C54.5613 138.715 54.3313 139.105 54.2013 139.605L52.5513 139.275C52.6813 138.705 52.9113 138.205 53.2413 137.775C53.5813 137.345 53.9963 137.015 54.4863 136.785C54.9863 136.545 55.5263 136.425 56.1063 136.425C56.5963 136.425 57.0463 136.51 57.4563 136.68C57.8663 136.84 58.2213 137.07 58.5213 137.37C58.8313 137.66 59.0663 138.005 59.2263 138.405C59.3963 138.795 59.4812 139.225 59.4812 139.695C59.4812 140.125 59.4013 140.545 59.2413 140.955C59.0813 141.365 58.8263 141.79 58.4763 142.23C58.1363 142.67 57.6963 143.155 57.1563 143.685C56.5963 144.235 55.9513 144.815 55.2213 145.425H59.6613V147H52.6113ZM63.282 141.195C62.832 141.195 62.432 141.095 62.082 140.895C61.732 140.695 61.452 140.42 61.242 140.07C61.042 139.72 60.942 139.32 60.942 138.87C60.942 138.42 61.042 138.02 61.242 137.67C61.452 137.31 61.737 137.03 62.097 136.83C62.457 136.62 62.862 136.515 63.312 136.515C63.762 136.515 64.162 136.62 64.512 136.83C64.862 137.03 65.137 137.305 65.337 137.655C65.547 138.005 65.652 138.405 65.652 138.855C65.652 139.305 65.547 139.705 65.337 140.055C65.137 140.405 64.857 140.685 64.497 140.895C64.137 141.095 63.732 141.195 63.282 141.195ZM63.477 147H62.037L68.502 136.65H69.942L63.477 147ZM62.277 138.855C62.277 139.085 62.322 139.29 62.412 139.47C62.502 139.64 62.622 139.775 62.772 139.875C62.922 139.975 63.097 140.025 63.297 140.025C63.497 140.025 63.672 139.975 63.822 139.875C63.972 139.775 64.092 139.64 64.182 139.47C64.272 139.29 64.317 139.085 64.317 138.855C64.317 138.625 64.272 138.425 64.182 138.255C64.092 138.075 63.972 137.935 63.822 137.835C63.672 137.735 63.497 137.685 63.297 137.685C63.097 137.685 62.922 137.735 62.772 137.835C62.622 137.935 62.502 138.075 62.412 138.255C62.322 138.425 62.277 138.625 62.277 138.855ZM68.667 147.135C68.227 147.135 67.827 147.035 67.467 146.835C67.117 146.635 66.837 146.36 66.627 146.01C66.427 145.66 66.327 145.26 66.327 144.81C66.327 144.36 66.427 143.96 66.627 143.61C66.837 143.25 67.117 142.97 67.467 142.77C67.827 142.56 68.237 142.455 68.697 142.455C69.137 142.455 69.532 142.56 69.882 142.77C70.242 142.97 70.522 143.245 70.722 143.595C70.932 143.945 71.037 144.345 71.037 144.795C71.037 145.245 70.932 145.645 70.722 145.995C70.522 146.345 70.242 146.625 69.882 146.835C69.532 147.035 69.127 147.135 68.667 147.135ZM68.682 145.965C68.872 145.965 69.042 145.915 69.192 145.815C69.352 145.715 69.477 145.58 69.567 145.41C69.657 145.23 69.702 145.025 69.702 144.795C69.702 144.565 69.657 144.365 69.567 144.195C69.477 144.015 69.352 143.875 69.192 143.775C69.042 143.675 68.872 143.625 68.682 143.625C68.492 143.625 68.317 143.675 68.157 143.775C68.007 143.875 67.887 144.015 67.797 144.195C67.707 144.365 67.662 144.565 67.662 144.795C67.662 145.025 67.707 145.23 67.797 145.41C67.887 145.58 68.007 145.715 68.157 145.815C68.317 145.915 68.492 145.965 68.682 145.965ZM78.7028 147V142.8L74.9678 136.35H77.0378L79.6478 141.12L82.2428 136.35H84.2678L80.5328 142.8V147H78.7028ZM87.7703 147.225C87.1903 147.225 86.6553 147.125 86.1653 146.925C85.6853 146.715 85.2653 146.425 84.9053 146.055C84.5453 145.685 84.2653 145.25 84.0653 144.75C83.8753 144.24 83.7803 143.68 83.7803 143.07C83.7803 142.48 83.8753 141.935 84.0653 141.435C84.2653 140.935 84.5353 140.5 84.8753 140.13C85.2253 139.75 85.6353 139.455 86.1053 139.245C86.5753 139.035 87.0853 138.93 87.6353 138.93C88.1853 138.93 88.6853 139.03 89.1353 139.23C89.5953 139.42 89.9903 139.695 90.3203 140.055C90.6603 140.415 90.9203 140.845 91.1003 141.345C91.2803 141.835 91.3703 142.38 91.3703 142.98V143.49H85.5653C85.6153 143.95 85.7353 144.35 85.9253 144.69C86.1253 145.02 86.3803 145.275 86.6903 145.455C87.0003 145.635 87.3603 145.725 87.7703 145.725C88.5903 145.725 89.2303 145.36 89.6903 144.63L91.2053 145.215C91.0253 145.625 90.7603 145.985 90.4103 146.295C90.0703 146.595 89.6703 146.825 89.2103 146.985C88.7603 147.145 88.2803 147.225 87.7703 147.225ZM87.6353 140.325C87.2853 140.325 86.9703 140.405 86.6903 140.565C86.4203 140.725 86.1903 140.95 86.0003 141.24C85.8103 141.53 85.6803 141.87 85.6103 142.26H89.5703C89.5103 141.87 89.3953 141.53 89.2253 141.24C89.0553 140.95 88.8303 140.725 88.5503 140.565C88.2803 140.405 87.9753 140.325 87.6353 140.325ZM95.5847 147.225C95.0747 147.225 94.5997 147.14 94.1597 146.97C93.7297 146.8 93.3597 146.56 93.0497 146.25C92.7497 145.93 92.5347 145.555 92.4047 145.125L93.9647 144.72C94.0947 145.06 94.3047 145.325 94.5947 145.515C94.8847 145.705 95.2197 145.8 95.5997 145.8C95.9897 145.8 96.3097 145.71 96.5597 145.53C96.8097 145.34 96.9347 145.1 96.9347 144.81C96.9347 144.56 96.8347 144.35 96.6347 144.18C96.4347 144.01 96.1097 143.885 95.6597 143.805L95.1647 143.715C94.3247 143.565 93.6897 143.295 93.2597 142.905C92.8397 142.515 92.6297 142.015 92.6297 141.405C92.6297 140.915 92.7547 140.485 93.0047 140.115C93.2547 139.745 93.5997 139.455 94.0397 139.245C94.4797 139.035 94.9847 138.93 95.5547 138.93C96.0447 138.93 96.4947 139.015 96.9047 139.185C97.3147 139.355 97.6597 139.595 97.9397 139.905C98.2197 140.215 98.4197 140.58 98.5397 141L96.9947 141.375C96.8747 141.055 96.6847 140.805 96.4247 140.625C96.1747 140.435 95.8797 140.34 95.5397 140.34C95.1897 140.34 94.8997 140.43 94.6697 140.61C94.4397 140.78 94.3247 141 94.3247 141.27C94.3247 141.5 94.4247 141.69 94.6247 141.84C94.8347 141.99 95.1847 142.11 95.6747 142.2L96.1697 142.29C96.9697 142.43 97.5847 142.705 98.0147 143.115C98.4447 143.525 98.6597 144.035 98.6597 144.645C98.6597 145.015 98.5847 145.36 98.4347 145.68C98.2847 145.99 98.0697 146.265 97.7897 146.505C97.5197 146.735 97.1947 146.91 96.8147 147.03C96.4447 147.16 96.0347 147.225 95.5847 147.225ZM103.23 147.225C102.44 147.225 101.82 147 101.37 146.55C100.92 146.09 100.695 145.435 100.695 144.585V140.55H99.3146V139.155H100.695V136.5H102.42V139.155H104.7V140.55H102.42V144.405C102.42 144.825 102.505 145.15 102.675 145.38C102.855 145.6 103.115 145.71 103.455 145.71C103.635 145.71 103.83 145.685 104.04 145.635C104.25 145.575 104.445 145.495 104.625 145.395L105.015 146.7C104.785 146.86 104.515 146.985 104.205 147.075C103.905 147.175 103.58 147.225 103.23 147.225ZM109.875 147.225C109.295 147.225 108.76 147.125 108.27 146.925C107.79 146.715 107.37 146.425 107.01 146.055C106.65 145.685 106.37 145.25 106.17 144.75C105.98 144.24 105.885 143.68 105.885 143.07C105.885 142.48 105.98 141.935 106.17 141.435C106.37 140.935 106.64 140.5 106.98 140.13C107.33 139.75 107.74 139.455 108.21 139.245C108.68 139.035 109.19 138.93 109.74 138.93C110.29 138.93 110.79 139.03 111.24 139.23C111.7 139.42 112.095 139.695 112.425 140.055C112.765 140.415 113.025 140.845 113.205 141.345C113.385 141.835 113.475 142.38 113.475 142.98V143.49H107.67C107.72 143.95 107.84 144.35 108.03 144.69C108.23 145.02 108.485 145.275 108.795 145.455C109.105 145.635 109.465 145.725 109.875 145.725C110.695 145.725 111.335 145.36 111.795 144.63L113.31 145.215C113.13 145.625 112.865 145.985 112.515 146.295C112.175 146.595 111.775 146.825 111.315 146.985C110.865 147.145 110.385 147.225 109.875 147.225ZM109.74 140.325C109.39 140.325 109.075 140.405 108.795 140.565C108.525 140.725 108.295 140.95 108.105 141.24C107.915 141.53 107.785 141.87 107.715 142.26H111.675C111.615 141.87 111.5 141.53 111.33 141.24C111.16 140.95 110.935 140.725 110.655 140.565C110.385 140.405 110.08 140.325 109.74 140.325ZM114.946 147V139.155H116.521L116.596 140.445C116.796 140.005 117.071 139.665 117.421 139.425C117.781 139.175 118.201 139.05 118.681 139.05C118.831 139.05 118.976 139.06 119.116 139.08C119.256 139.1 119.381 139.135 119.491 139.185L119.296 140.865C119.186 140.825 119.071 140.8 118.951 140.79C118.831 140.77 118.711 140.76 118.591 140.76C117.991 140.76 117.521 140.96 117.181 141.36C116.841 141.76 116.671 142.315 116.671 143.025V147H114.946ZM123.842 147.225C123.322 147.225 122.837 147.12 122.387 146.91C121.947 146.7 121.562 146.41 121.232 146.04C120.902 145.67 120.642 145.235 120.452 144.735C120.272 144.235 120.182 143.695 120.182 143.115C120.182 142.525 120.277 141.975 120.467 141.465C120.657 140.955 120.922 140.51 121.262 140.13C121.602 139.75 121.997 139.455 122.447 139.245C122.907 139.035 123.402 138.93 123.932 138.93C124.452 138.93 124.927 139.04 125.357 139.26C125.787 139.48 126.142 139.79 126.422 140.19V135.84H128.147V147H126.572L126.497 145.74C126.217 146.2 125.847 146.565 125.387 146.835C124.927 147.095 124.412 147.225 123.842 147.225ZM124.202 145.665C124.632 145.665 125.017 145.555 125.357 145.335C125.697 145.105 125.962 144.795 126.152 144.405C126.352 144.015 126.452 143.575 126.452 143.085C126.452 142.585 126.352 142.14 126.152 141.75C125.962 141.36 125.697 141.055 125.357 140.835C125.017 140.605 124.632 140.49 124.202 140.49C123.772 140.49 123.387 140.605 123.047 140.835C122.707 141.055 122.437 141.36 122.237 141.75C122.047 142.14 121.952 142.585 121.952 143.085C121.952 143.575 122.047 144.015 122.237 144.405C122.437 144.795 122.707 145.105 123.047 145.335C123.387 145.555 123.772 145.665 124.202 145.665ZM132.404 147.225C132.004 147.225 131.634 147.165 131.294 147.045C130.964 146.925 130.674 146.755 130.424 146.535C130.174 146.315 129.979 146.055 129.839 145.755C129.699 145.455 129.629 145.125 129.629 144.765C129.629 144.265 129.759 143.83 130.019 143.46C130.289 143.08 130.664 142.785 131.144 142.575C131.624 142.365 132.184 142.26 132.824 142.26C133.174 142.26 133.509 142.295 133.829 142.365C134.149 142.425 134.454 142.515 134.744 142.635V142.14C134.744 141.79 134.679 141.485 134.549 141.225C134.419 140.955 134.234 140.745 133.994 140.595C133.754 140.445 133.464 140.37 133.124 140.37C132.764 140.37 132.439 140.465 132.149 140.655C131.859 140.845 131.644 141.11 131.504 141.45L129.914 141.09C130.034 140.65 130.249 140.27 130.559 139.95C130.879 139.63 131.259 139.38 131.699 139.2C132.149 139.02 132.634 138.93 133.154 138.93C133.644 138.93 134.089 139.01 134.489 139.17C134.899 139.33 135.249 139.555 135.539 139.845C135.829 140.135 136.054 140.48 136.214 140.88C136.374 141.28 136.454 141.725 136.454 142.215V147H134.879L134.819 145.965C134.609 146.345 134.294 146.65 133.874 146.88C133.454 147.11 132.964 147.225 132.404 147.225ZM131.369 144.69C131.369 144.91 131.429 145.11 131.549 145.29C131.669 145.46 131.834 145.595 132.044 145.695C132.264 145.795 132.519 145.845 132.809 145.845C133.179 145.845 133.509 145.765 133.799 145.605C134.089 145.445 134.319 145.23 134.489 144.96C134.659 144.68 134.744 144.365 134.744 144.015V143.835C134.484 143.725 134.214 143.64 133.934 143.58C133.664 143.51 133.384 143.475 133.094 143.475C132.574 143.475 132.154 143.585 131.834 143.805C131.524 144.025 131.369 144.32 131.369 144.69ZM139.111 150.12C138.861 150.12 138.626 150.095 138.406 150.045C138.196 149.995 137.991 149.915 137.791 149.805L138.166 148.44C138.276 148.49 138.401 148.53 138.541 148.56C138.681 148.6 138.816 148.62 138.946 148.62C139.246 148.62 139.506 148.535 139.726 148.365C139.956 148.195 140.146 147.92 140.296 147.54L140.536 146.925L137.341 139.155H139.231L141.346 145.02L143.266 139.155H145.096L141.766 147.945C141.476 148.695 141.111 149.245 140.671 149.595C140.241 149.945 139.721 150.12 139.111 150.12Z" fill="black"/>
<path d="M46.765 78V68.985H43.66V67.35H51.7V68.985H48.595V78H46.765ZM55.5584 78.225C54.9884 78.225 54.4584 78.125 53.9684 77.925C53.4884 77.715 53.0684 77.425 52.7084 77.055C52.3484 76.675 52.0684 76.235 51.8684 75.735C51.6684 75.225 51.5684 74.67 51.5684 74.07C51.5684 73.48 51.6684 72.935 51.8684 72.435C52.0684 71.925 52.3484 71.485 52.7084 71.115C53.0784 70.735 53.5084 70.445 53.9984 70.245C54.4984 70.035 55.0384 69.93 55.6184 69.93C56.1884 69.93 56.7134 70.035 57.1934 70.245C57.6834 70.445 58.1084 70.735 58.4684 71.115C58.8284 71.485 59.1084 71.92 59.3084 72.42C59.5084 72.92 59.6084 73.47 59.6084 74.07C59.6084 74.67 59.5084 75.225 59.3084 75.735C59.1084 76.235 58.8234 76.675 58.4534 77.055C58.0934 77.425 57.6634 77.715 57.1634 77.925C56.6734 78.125 56.1384 78.225 55.5584 78.225ZM55.5884 76.665C56.0184 76.665 56.4034 76.555 56.7434 76.335C57.0834 76.105 57.3484 75.795 57.5384 75.405C57.7384 75.015 57.8384 74.57 57.8384 74.07C57.8384 73.57 57.7384 73.13 57.5384 72.75C57.3484 72.36 57.0834 72.055 56.7434 71.835C56.4034 71.605 56.0184 71.49 55.5884 71.49C55.1584 71.49 54.7734 71.605 54.4334 71.835C54.0934 72.055 53.8234 72.36 53.6234 72.75C53.4334 73.13 53.3384 73.57 53.3384 74.07C53.3384 74.57 53.4334 75.015 53.6234 75.405C53.8234 75.795 54.0934 76.105 54.4334 76.335C54.7734 76.555 55.1584 76.665 55.5884 76.665ZM64.5155 78.225C63.9955 78.225 63.5105 78.12 63.0605 77.91C62.6205 77.7 62.2355 77.41 61.9055 77.04C61.5755 76.67 61.3155 76.235 61.1255 75.735C60.9455 75.235 60.8555 74.695 60.8555 74.115C60.8555 73.525 60.9505 72.975 61.1405 72.465C61.3305 71.955 61.5955 71.51 61.9355 71.13C62.2755 70.75 62.6705 70.455 63.1205 70.245C63.5805 70.035 64.0755 69.93 64.6055 69.93C65.1255 69.93 65.6005 70.04 66.0305 70.26C66.4605 70.48 66.8155 70.79 67.0955 71.19V66.84H68.8205V78H67.2455L67.1705 76.74C66.8905 77.2 66.5205 77.565 66.0605 77.835C65.6005 78.095 65.0855 78.225 64.5155 78.225ZM64.8755 76.665C65.3055 76.665 65.6905 76.555 66.0305 76.335C66.3705 76.105 66.6355 75.795 66.8255 75.405C67.0255 75.015 67.1255 74.575 67.1255 74.085C67.1255 73.585 67.0255 73.14 66.8255 72.75C66.6355 72.36 66.3705 72.055 66.0305 71.835C65.6905 71.605 65.3055 71.49 64.8755 71.49C64.4455 71.49 64.0605 71.605 63.7205 71.835C63.3805 72.055 63.1105 72.36 62.9105 72.75C62.7205 73.14 62.6255 73.585 62.6255 74.085C62.6255 74.575 62.7205 75.015 62.9105 75.405C63.1105 75.795 63.3805 76.105 63.7205 76.335C64.0605 76.555 64.4455 76.665 64.8755 76.665ZM73.078 78.225C72.678 78.225 72.308 78.165 71.968 78.045C71.638 77.925 71.348 77.755 71.098 77.535C70.848 77.315 70.653 77.055 70.513 76.755C70.373 76.455 70.303 76.125 70.303 75.765C70.303 75.265 70.433 74.83 70.693 74.46C70.963 74.08 71.338 73.785 71.818 73.575C72.298 73.365 72.858 73.26 73.498 73.26C73.848 73.26 74.183 73.295 74.503 73.365C74.823 73.425 75.128 73.515 75.418 73.635V73.14C75.418 72.79 75.353 72.485 75.223 72.225C75.093 71.955 74.908 71.745 74.668 71.595C74.428 71.445 74.138 71.37 73.798 71.37C73.438 71.37 73.113 71.465 72.823 71.655C72.533 71.845 72.318 72.11 72.178 72.45L70.588 72.09C70.708 71.65 70.923 71.27 71.233 70.95C71.553 70.63 71.933 70.38 72.373 70.2C72.823 70.02 73.308 69.93 73.828 69.93C74.318 69.93 74.763 70.01 75.163 70.17C75.573 70.33 75.923 70.555 76.213 70.845C76.503 71.135 76.728 71.48 76.888 71.88C77.048 72.28 77.128 72.725 77.128 73.215V78H75.553L75.493 76.965C75.283 77.345 74.968 77.65 74.548 77.88C74.128 78.11 73.638 78.225 73.078 78.225ZM72.043 75.69C72.043 75.91 72.103 76.11 72.223 76.29C72.343 76.46 72.508 76.595 72.718 76.695C72.938 76.795 73.193 76.845 73.483 76.845C73.853 76.845 74.183 76.765 74.473 76.605C74.763 76.445 74.993 76.23 75.163 75.96C75.333 75.68 75.418 75.365 75.418 75.015V74.835C75.158 74.725 74.888 74.64 74.608 74.58C74.338 74.51 74.058 74.475 73.768 74.475C73.248 74.475 72.828 74.585 72.508 74.805C72.198 75.025 72.043 75.32 72.043 75.69ZM79.7847 81.12C79.5347 81.12 79.2997 81.095 79.0797 81.045C78.8697 80.995 78.6647 80.915 78.4647 80.805L78.8397 79.44C78.9497 79.49 79.0747 79.53 79.2147 79.56C79.3547 79.6 79.4897 79.62 79.6197 79.62C79.9197 79.62 80.1797 79.535 80.3997 79.365C80.6297 79.195 80.8197 78.92 80.9697 78.54L81.2097 77.925L78.0147 70.155H79.9047L82.0197 76.02L83.9397 70.155H85.7697L82.4397 78.945C82.1497 79.695 81.7847 80.245 81.3447 80.595C80.9147 80.945 80.3947 81.12 79.7847 81.12ZM87.6435 67.29C87.8935 67.29 88.1235 67.37 88.3335 67.53C88.5435 67.69 88.7085 67.905 88.8285 68.175C88.9585 68.445 89.0235 68.745 89.0235 69.075C89.0235 69.465 88.9385 69.83 88.7685 70.17C88.6085 70.51 88.3785 70.805 88.0785 71.055C87.7785 71.305 87.4235 71.5 87.0135 71.64L86.6685 70.71C87.0485 70.57 87.3485 70.37 87.5685 70.11C87.7985 69.84 87.9135 69.555 87.9135 69.255C87.9135 69.135 87.9035 69.03 87.8835 68.94C87.7735 69.02 87.6485 69.06 87.5085 69.06C87.3485 69.06 87.2035 69.025 87.0735 68.955C86.9535 68.875 86.8535 68.77 86.7735 68.64C86.6935 68.5 86.6535 68.35 86.6535 68.19C86.6535 68.03 86.6985 67.88 86.7885 67.74C86.8785 67.6 86.9985 67.49 87.1485 67.41C87.2985 67.33 87.4635 67.29 87.6435 67.29ZM92.9041 78.225C92.3941 78.225 91.9191 78.14 91.4791 77.97C91.0491 77.8 90.6791 77.56 90.3691 77.25C90.0691 76.93 89.8541 76.555 89.7241 76.125L91.2841 75.72C91.4141 76.06 91.6241 76.325 91.9141 76.515C92.2041 76.705 92.5391 76.8 92.9191 76.8C93.3091 76.8 93.6291 76.71 93.8791 76.53C94.1291 76.34 94.2541 76.1 94.2541 75.81C94.2541 75.56 94.1541 75.35 93.9541 75.18C93.7541 75.01 93.4291 74.885 92.9791 74.805L92.4841 74.715C91.6441 74.565 91.0091 74.295 90.5791 73.905C90.1591 73.515 89.9491 73.015 89.9491 72.405C89.9491 71.915 90.0741 71.485 90.3241 71.115C90.5741 70.745 90.9191 70.455 91.3591 70.245C91.7991 70.035 92.3041 69.93 92.8741 69.93C93.3641 69.93 93.8141 70.015 94.2241 70.185C94.6341 70.355 94.9791 70.595 95.2591 70.905C95.5391 71.215 95.7391 71.58 95.8591 72L94.3141 72.375C94.1941 72.055 94.0041 71.805 93.7441 71.625C93.4941 71.435 93.1991 71.34 92.8591 71.34C92.5091 71.34 92.2191 71.43 91.9891 71.61C91.7591 71.78 91.6441 72 91.6441 72.27C91.6441 72.5 91.7441 72.69 91.9441 72.84C92.1541 72.99 92.5041 73.11 92.9941 73.2L93.4891 73.29C94.2891 73.43 94.9041 73.705 95.3341 74.115C95.7641 74.525 95.9791 75.035 95.9791 75.645C95.9791 76.015 95.9041 76.36 95.7541 76.68C95.6041 76.99 95.3891 77.265 95.1091 77.505C94.8391 77.735 94.5141 77.91 94.1341 78.03C93.7641 78.16 93.3541 78.225 92.9041 78.225ZM100.71 78V67.35H102.54V78H100.71ZM104.516 78V70.155H106.091L106.151 71.235C106.381 70.835 106.701 70.52 107.111 70.29C107.531 70.05 108.011 69.93 108.551 69.93C109.141 69.93 109.651 70.07 110.081 70.35C110.521 70.63 110.861 71.025 111.101 71.535C111.341 72.045 111.461 72.645 111.461 73.335V78H109.736V73.53C109.736 72.89 109.591 72.39 109.301 72.03C109.021 71.67 108.626 71.49 108.116 71.49C107.756 71.49 107.431 71.575 107.141 71.745C106.861 71.915 106.641 72.145 106.481 72.435C106.321 72.725 106.241 73.06 106.241 73.44V78H104.516ZM116.86 78.225C116.3 78.225 115.785 78.125 115.315 77.925C114.845 77.715 114.435 77.43 114.085 77.07C113.735 76.7 113.46 76.265 113.26 75.765C113.07 75.265 112.975 74.72 112.975 74.13C112.975 73.54 113.075 72.99 113.275 72.48C113.475 71.97 113.75 71.525 114.1 71.145C114.45 70.765 114.86 70.47 115.33 70.26C115.81 70.04 116.33 69.93 116.89 69.93C117.43 69.93 117.925 70.03 118.375 70.23C118.825 70.42 119.21 70.695 119.53 71.055C119.86 71.405 120.095 71.82 120.235 72.3L118.6 72.69C118.43 72.31 118.19 72.015 117.88 71.805C117.58 71.595 117.24 71.49 116.86 71.49C116.46 71.49 116.1 71.605 115.78 71.835C115.46 72.065 115.205 72.38 115.015 72.78C114.835 73.17 114.745 73.615 114.745 74.115C114.745 74.605 114.835 75.045 115.015 75.435C115.195 75.815 115.44 76.115 115.75 76.335C116.07 76.555 116.44 76.665 116.86 76.665C117.26 76.665 117.625 76.565 117.955 76.365C118.285 76.155 118.53 75.86 118.69 75.48L120.31 75.855C120.17 76.335 119.93 76.755 119.59 77.115C119.25 77.465 118.845 77.74 118.375 77.94C117.905 78.13 117.4 78.225 116.86 78.225ZM125.314 78.225C124.744 78.225 124.214 78.125 123.724 77.925C123.244 77.715 122.824 77.425 122.464 77.055C122.104 76.675 121.824 76.235 121.624 75.735C121.424 75.225 121.324 74.67 121.324 74.07C121.324 73.48 121.424 72.935 121.624 72.435C121.824 71.925 122.104 71.485 122.464 71.115C122.834 70.735 123.264 70.445 123.754 70.245C124.254 70.035 124.794 69.93 125.374 69.93C125.944 69.93 126.469 70.035 126.949 70.245C127.439 70.445 127.864 70.735 128.224 71.115C128.584 71.485 128.864 71.92 129.064 72.42C129.264 72.92 129.364 73.47 129.364 74.07C129.364 74.67 129.264 75.225 129.064 75.735C128.864 76.235 128.579 76.675 128.209 77.055C127.849 77.425 127.419 77.715 126.919 77.925C126.429 78.125 125.894 78.225 125.314 78.225ZM125.344 76.665C125.774 76.665 126.159 76.555 126.499 76.335C126.839 76.105 127.104 75.795 127.294 75.405C127.494 75.015 127.594 74.57 127.594 74.07C127.594 73.57 127.494 73.13 127.294 72.75C127.104 72.36 126.839 72.055 126.499 71.835C126.159 71.605 125.774 71.49 125.344 71.49C124.914 71.49 124.529 71.605 124.189 71.835C123.849 72.055 123.579 72.36 123.379 72.75C123.189 73.13 123.094 73.57 123.094 74.07C123.094 74.57 123.189 75.015 123.379 75.405C123.579 75.795 123.849 76.105 124.189 76.335C124.529 76.555 124.914 76.665 125.344 76.665ZM130.883 78V70.155H132.458L132.518 71.205C132.748 70.815 133.063 70.505 133.463 70.275C133.863 70.045 134.318 69.93 134.828 69.93C135.378 69.93 135.863 70.07 136.283 70.35C136.703 70.62 137.028 70.995 137.258 71.475C137.408 71.165 137.608 70.895 137.858 70.665C138.118 70.435 138.418 70.255 138.758 70.125C139.108 69.995 139.483 69.93 139.883 69.93C140.463 69.93 140.968 70.07 141.398 70.35C141.828 70.62 142.158 71.01 142.388 71.52C142.628 72.02 142.748 72.62 142.748 73.32V78H141.023V73.515C141.023 72.865 140.883 72.365 140.603 72.015C140.323 71.665 139.938 71.49 139.448 71.49C139.108 71.49 138.803 71.575 138.533 71.745C138.273 71.905 138.063 72.135 137.903 72.435C137.753 72.725 137.678 73.055 137.678 73.425V78H135.953V73.515C135.953 72.865 135.813 72.365 135.533 72.015C135.253 71.665 134.868 71.49 134.378 71.49C134.038 71.49 133.733 71.575 133.463 71.745C133.203 71.905 132.993 72.135 132.833 72.435C132.683 72.725 132.608 73.055 132.608 73.425V78H130.883ZM148.254 78.225C147.674 78.225 147.139 78.125 146.649 77.925C146.169 77.715 145.749 77.425 145.389 77.055C145.029 76.685 144.749 76.25 144.549 75.75C144.359 75.24 144.264 74.68 144.264 74.07C144.264 73.48 144.359 72.935 144.549 72.435C144.749 71.935 145.019 71.5 145.359 71.13C145.709 70.75 146.119 70.455 146.589 70.245C147.059 70.035 147.569 69.93 148.119 69.93C148.669 69.93 149.169 70.03 149.619 70.23C150.079 70.42 150.474 70.695 150.804 71.055C151.144 71.415 151.404 71.845 151.584 72.345C151.764 72.835 151.854 73.38 151.854 73.98V74.49H146.049C146.099 74.95 146.219 75.35 146.409 75.69C146.609 76.02 146.864 76.275 147.174 76.455C147.484 76.635 147.844 76.725 148.254 76.725C149.074 76.725 149.714 76.36 150.174 75.63L151.689 76.215C151.509 76.625 151.244 76.985 150.894 77.295C150.554 77.595 150.154 77.825 149.694 77.985C149.244 78.145 148.764 78.225 148.254 78.225ZM148.119 71.325C147.769 71.325 147.454 71.405 147.174 71.565C146.904 71.725 146.674 71.95 146.484 72.24C146.294 72.53 146.164 72.87 146.094 73.26H150.054C149.994 72.87 149.879 72.53 149.709 72.24C149.539 71.95 149.314 71.725 149.034 71.565C148.764 71.405 148.459 71.325 148.119 71.325Z" fill="black"/>
<defs>
<filter id="filter0_d" x="0" y="0" width="422" height="238" filterUnits="userSpaceOnUse" color-interpolation-filters="sRGB">
<feFlood flood-opacity="0" result="BackgroundImageFix"/>
<feColorMatrix in="SourceAlpha" type="matrix" values="0 0 0 0 0 0 0 0 0 0 0 0 0 0 0 0 0 0 127 0" result="hardAlpha"/>
<feOffset dx="10" dy="15"/>
<feGaussianBlur stdDeviation="5"/>
<feColorMatrix type="matrix" values="0 0 0 0 1 0 0 0 0 0.560784 0 0 0 0 0.698039 0 0 0 0.25 0"/>
<feBlend mode="normal" in2="BackgroundImageFix" result="effect1_dropShadow"/>
<feBlend mode="normal" in="SourceGraphic" in2="effect1_dropShadow" result="shape"/>
</filter>
<linearGradient id="paint0_linear" x1="338" y1="249" x2="-182" y2="106" gradientUnits="userSpaceOnUse">
<stop offset="0.150683" stop-color="#FBB2B4"/>
<stop offset="1" stop-color="#FF8FB2" stop-opacity="0"/>
</linearGradient>
</defs>
</svg>
