<svg width="422" height="238" viewBox="0 0 422 238" fill="none" xmlns="http://www.w3.org/2000/svg">
<g filter="url(#filter0_d)">
<rect width="402" height="213" rx="10" fill="url(#paint0_linear)"/>
</g>
<circle cx="343" cy="62" r="50" fill="#F1C9EC" fill-opacity="0.3"/>
<circle cx="265" cy="103" r="50" fill="#F1C9EC" fill-opacity="0.3"/>
<circle cx="315" cy="76" r="50" fill="#F1C9EC" fill-opacity="0.3"/>
<path d="M45.1 118V96.7H51.52C53.22 96.7 54.68 96.97 55.9 97.51C57.14 98.05 58.09 98.82 58.75 99.82C59.41 100.82 59.74 102.01 59.74 103.39C59.74 104.25 59.58 105.06 59.26 105.82C58.96 106.56 58.52 107.23 57.94 107.83C57.38 108.43 56.7 108.92 55.9 109.3L60.85 118H56.8L52.69 110.26C52.47 110.28 52.22 110.3 51.94 110.32C51.68 110.32 51.41 110.32 51.13 110.32C50.43 110.32 49.62 110.25 48.7 110.11V118H45.1ZM48.7 99.88V106.93C49.12 107.01 49.55 107.07 49.99 107.11C50.45 107.13 50.9 107.14 51.34 107.14C52.82 107.14 53.97 106.82 54.79 106.18C55.61 105.54 56.02 104.65 56.02 103.51C56.02 102.37 55.62 101.48 54.82 100.84C54.02 100.2 52.9 99.88 51.46 99.88H48.7ZM63.4049 123.94V102.31H66.5549L66.7049 104.83C67.2649 103.91 68.0049 103.19 68.9249 102.67C69.8449 102.13 70.8749 101.86 72.0149 101.86C73.0549 101.86 74.0149 102.07 74.8949 102.49C75.7949 102.91 76.5749 103.49 77.2349 104.23C77.8949 104.97 78.4049 105.84 78.7649 106.84C79.1449 107.84 79.3349 108.92 79.3349 110.08C79.3349 111.26 79.1449 112.36 78.7649 113.38C78.3849 114.4 77.8549 115.29 77.1749 116.05C76.4949 116.81 75.6949 117.4 74.7749 117.82C73.8749 118.24 72.8949 118.45 71.8349 118.45C70.7949 118.45 69.8449 118.23 68.9849 117.79C68.1249 117.35 67.4149 116.73 66.8549 115.93V123.94H63.4049ZM71.2949 115.33C72.1549 115.33 72.9249 115.11 73.6049 114.67C74.2849 114.21 74.8149 113.59 75.1949 112.81C75.5949 112.03 75.7949 111.14 75.7949 110.14C75.7949 109.14 75.5949 108.26 75.1949 107.5C74.8149 106.72 74.2849 106.11 73.6049 105.67C72.9249 105.21 72.1549 104.98 71.2949 104.98C70.4349 104.98 69.6649 105.21 68.9849 105.67C68.3049 106.11 67.7649 106.72 67.3649 107.5C66.9849 108.26 66.7949 109.14 66.7949 110.14C66.7949 111.14 66.9849 112.03 67.3649 112.81C67.7649 113.59 68.3049 114.21 68.9849 114.67C69.6649 115.11 70.4349 115.33 71.2949 115.33ZM83.8705 118.12C83.4505 118.12 83.0705 118.02 82.7305 117.82C82.3905 117.62 82.1105 117.35 81.8905 117.01C81.6905 116.65 81.5905 116.26 81.5905 115.84C81.5905 115.42 81.6905 115.04 81.8905 114.7C82.1105 114.34 82.3905 114.06 82.7305 113.86C83.0705 113.66 83.4505 113.56 83.8705 113.56C84.2905 113.56 84.6705 113.66 85.0105 113.86C85.3505 114.06 85.6205 114.34 85.8205 114.7C86.0405 115.04 86.1505 115.42 86.1505 115.84C86.1505 116.26 86.0405 116.65 85.8205 117.01C85.6205 117.35 85.3505 117.62 85.0105 117.82C84.6705 118.02 84.2905 118.12 83.8705 118.12ZM100.364 118V101.11L95.8645 103.63L94.6345 100.72L100.904 97.3H103.844V118H100.364ZM116.104 118.45C114.904 118.45 113.824 118.21 112.864 117.73C111.904 117.23 111.084 116.51 110.404 115.57C109.724 114.63 109.204 113.5 108.844 112.18C108.504 110.86 108.334 109.38 108.334 107.74C108.334 106.04 108.514 104.52 108.874 103.18C109.254 101.84 109.794 100.7 110.494 99.76C111.194 98.82 112.034 98.1 113.014 97.6C113.994 97.1 115.084 96.85 116.284 96.85C117.504 96.85 118.584 97.1 119.524 97.6C120.484 98.1 121.294 98.82 121.954 99.76C122.614 100.7 123.114 101.83 123.454 103.15C123.814 104.45 123.994 105.92 123.994 107.56C123.994 109.24 123.814 110.75 123.454 112.09C123.094 113.43 122.564 114.58 121.864 115.54C121.184 116.48 120.354 117.2 119.374 117.7C118.414 118.2 117.324 118.45 116.104 118.45ZM116.164 115.21C117.504 115.21 118.544 114.56 119.284 113.26C120.044 111.94 120.424 110.07 120.424 107.65C120.424 105.23 120.044 103.37 119.284 102.07C118.544 100.75 117.504 100.09 116.164 100.09C114.824 100.09 113.774 100.75 113.014 102.07C112.274 103.37 111.904 105.23 111.904 107.65C111.904 110.07 112.274 111.94 113.014 113.26C113.774 114.56 114.824 115.21 116.164 115.21ZM134.474 118.45C133.274 118.45 132.194 118.21 131.234 117.73C130.274 117.23 129.454 116.51 128.774 115.57C128.094 114.63 127.574 113.5 127.214 112.18C126.874 110.86 126.704 109.38 126.704 107.74C126.704 106.04 126.884 104.52 127.244 103.18C127.624 101.84 128.164 100.7 128.864 99.76C129.564 98.82 130.404 98.1 131.384 97.6C132.364 97.1 133.454 96.85 134.654 96.85C135.874 96.85 136.954 97.1 137.894 97.6C138.854 98.1 139.664 98.82 140.324 99.76C140.984 100.7 141.484 101.83 141.824 103.15C142.184 104.45 142.364 105.92 142.364 107.56C142.364 109.24 142.184 110.75 141.824 112.09C141.464 113.43 140.934 114.58 140.234 115.54C139.554 116.48 138.724 117.2 137.744 117.7C136.784 118.2 135.694 118.45 134.474 118.45ZM134.534 115.21C135.874 115.21 136.914 114.56 137.654 113.26C138.414 111.94 138.794 110.07 138.794 107.65C138.794 105.23 138.414 103.37 137.654 102.07C136.914 100.75 135.874 100.09 134.534 100.09C133.194 100.09 132.144 100.75 131.384 102.07C130.644 103.37 130.274 105.23 130.274 107.65C130.274 110.07 130.644 111.94 131.384 113.26C132.144 114.56 133.194 115.21 134.534 115.21ZM146.947 118.12C146.527 118.12 146.147 118.02 145.807 117.82C145.467 117.62 145.187 117.35 144.967 117.01C144.767 116.65 144.667 116.26 144.667 115.84C144.667 115.42 144.767 115.04 144.967 114.7C145.187 114.34 145.467 114.06 145.807 113.86C146.147 113.66 146.527 113.56 146.947 113.56C147.367 113.56 147.747 113.66 148.087 113.86C148.427 114.06 148.697 114.34 148.897 114.7C149.117 115.04 149.227 115.42 149.227 115.84C149.227 116.26 149.117 116.65 148.897 117.01C148.697 117.35 148.427 117.62 148.087 117.82C147.747 118.02 147.367 118.12 146.947 118.12ZM159.288 118.45C158.088 118.45 157.008 118.21 156.048 117.73C155.088 117.23 154.268 116.51 153.588 115.57C152.908 114.63 152.388 113.5 152.028 112.18C151.688 110.86 151.518 109.38 151.518 107.74C151.518 106.04 151.698 104.52 152.058 103.18C152.438 101.84 152.978 100.7 153.678 99.76C154.378 98.82 155.218 98.1 156.198 97.6C157.178 97.1 158.268 96.85 159.468 96.85C160.688 96.85 161.768 97.1 162.708 97.6C163.668 98.1 164.478 98.82 165.138 99.76C165.798 100.7 166.298 101.83 166.638 103.15C166.998 104.45 167.178 105.92 167.178 107.56C167.178 109.24 166.998 110.75 166.638 112.09C166.278 113.43 165.748 114.58 165.048 115.54C164.368 116.48 163.538 117.2 162.558 117.7C161.598 118.2 160.508 118.45 159.288 118.45ZM159.348 115.21C160.688 115.21 161.728 114.56 162.468 113.26C163.228 111.94 163.608 110.07 163.608 107.65C163.608 105.23 163.228 103.37 162.468 102.07C161.728 100.75 160.688 100.09 159.348 100.09C158.008 100.09 156.958 100.75 156.198 102.07C155.458 103.37 155.088 105.23 155.088 107.65C155.088 110.07 155.458 111.94 156.198 113.26C156.958 114.56 158.008 115.21 159.348 115.21ZM177.657 118.45C176.457 118.45 175.377 118.21 174.417 117.73C173.457 117.23 172.637 116.51 171.957 115.57C171.277 114.63 170.757 113.5 170.397 112.18C170.057 110.86 169.887 109.38 169.887 107.74C169.887 106.04 170.067 104.52 170.427 103.18C170.807 101.84 171.347 100.7 172.047 99.76C172.747 98.82 173.587 98.1 174.567 97.6C175.547 97.1 176.637 96.85 177.837 96.85C179.057 96.85 180.137 97.1 181.077 97.6C182.037 98.1 182.847 98.82 183.507 99.76C184.167 100.7 184.667 101.83 185.007 103.15C185.367 104.45 185.547 105.92 185.547 107.56C185.547 109.24 185.367 110.75 185.007 112.09C184.647 113.43 184.117 114.58 183.417 115.54C182.737 116.48 181.907 117.2 180.927 117.7C179.967 118.2 178.877 118.45 177.657 118.45ZM177.717 115.21C179.057 115.21 180.097 114.56 180.837 113.26C181.597 111.94 181.977 110.07 181.977 107.65C181.977 105.23 181.597 103.37 180.837 102.07C180.097 100.75 179.057 100.09 177.717 100.09C176.377 100.09 175.327 100.75 174.567 102.07C173.827 103.37 173.457 105.23 173.457 107.65C173.457 110.07 173.827 111.94 174.567 113.26C175.327 114.56 176.377 115.21 177.717 115.21ZM196.026 118.45C194.826 118.45 193.746 118.21 192.786 117.73C191.826 117.23 191.006 116.51 190.326 115.57C189.646 114.63 189.126 113.5 188.766 112.18C188.426 110.86 188.256 109.38 188.256 107.74C188.256 106.04 188.436 104.52 188.796 103.18C189.176 101.84 189.716 100.7 190.416 99.76C191.116 98.82 191.956 98.1 192.936 97.6C193.916 97.1 195.006 96.85 196.206 96.85C197.426 96.85 198.506 97.1 199.446 97.6C200.406 98.1 201.216 98.82 201.876 99.76C202.536 100.7 203.036 101.83 203.376 103.15C203.736 104.45 203.916 105.92 203.916 107.56C203.916 109.24 203.736 110.75 203.376 112.09C203.016 113.43 202.486 114.58 201.786 115.54C201.106 116.48 200.276 117.2 199.296 117.7C198.336 118.2 197.246 118.45 196.026 118.45ZM196.086 115.21C197.426 115.21 198.466 114.56 199.206 113.26C199.966 111.94 200.346 110.07 200.346 107.65C200.346 105.23 199.966 103.37 199.206 102.07C198.466 100.75 197.426 100.09 196.086 100.09C194.746 100.09 193.696 100.75 192.936 102.07C192.196 103.37 191.826 105.23 191.826 107.65C191.826 110.07 192.196 111.94 192.936 113.26C193.696 114.56 194.746 115.21 196.086 115.21ZM208.499 118.12C208.079 118.12 207.699 118.02 207.359 117.82C207.019 117.62 206.739 117.35 206.519 117.01C206.319 116.65 206.219 116.26 206.219 115.84C206.219 115.42 206.319 115.04 206.519 114.7C206.739 114.34 207.019 114.06 207.359 113.86C207.699 113.66 208.079 113.56 208.499 113.56C208.919 113.56 209.299 113.66 209.639 113.86C209.979 114.06 210.249 114.34 210.449 114.7C210.669 115.04 210.779 115.42 210.779 115.84C210.779 116.26 210.669 116.65 210.449 117.01C210.249 117.35 209.979 117.62 209.639 117.82C209.299 118.02 208.919 118.12 208.499 118.12ZM220.841 118.45C219.641 118.45 218.561 118.21 217.601 117.73C216.641 117.23 215.821 116.51 215.141 115.57C214.461 114.63 213.941 113.5 213.581 112.18C213.241 110.86 213.071 109.38 213.071 107.74C213.071 106.04 213.251 104.52 213.611 103.18C213.991 101.84 214.531 100.7 215.231 99.76C215.931 98.82 216.771 98.1 217.751 97.6C218.731 97.1 219.821 96.85 221.021 96.85C222.241 96.85 223.321 97.1 224.261 97.6C225.221 98.1 226.031 98.82 226.691 99.76C227.351 100.7 227.851 101.83 228.191 103.15C228.551 104.45 228.731 105.92 228.731 107.56C228.731 109.24 228.551 110.75 228.191 112.09C227.831 113.43 227.301 114.58 226.601 115.54C225.921 116.48 225.091 117.2 224.111 117.7C223.151 118.2 222.061 118.45 220.841 118.45ZM220.901 115.21C222.241 115.21 223.281 114.56 224.021 113.26C224.781 111.94 225.161 110.07 225.161 107.65C225.161 105.23 224.781 103.37 224.021 102.07C223.281 100.75 222.241 100.09 220.901 100.09C219.561 100.09 218.511 100.75 217.751 102.07C217.011 103.37 216.641 105.23 216.641 107.65C216.641 110.07 217.011 111.94 217.751 113.26C218.511 114.56 219.561 115.21 220.901 115.21ZM239.21 118.45C238.01 118.45 236.93 118.21 235.97 117.73C235.01 117.23 234.19 116.51 233.51 115.57C232.83 114.63 232.31 113.5 231.95 112.18C231.61 110.86 231.44 109.38 231.44 107.74C231.44 106.04 231.62 104.52 231.98 103.18C232.36 101.84 232.9 100.7 233.6 99.76C234.3 98.82 235.14 98.1 236.12 97.6C237.1 97.1 238.19 96.85 239.39 96.85C240.61 96.85 241.69 97.1 242.63 97.6C243.59 98.1 244.4 98.82 245.06 99.76C245.72 100.7 246.22 101.83 246.56 103.15C246.92 104.45 247.1 105.92 247.1 107.56C247.1 109.24 246.92 110.75 246.56 112.09C246.2 113.43 245.67 114.58 244.97 115.54C244.29 116.48 243.46 117.2 242.48 117.7C241.52 118.2 240.43 118.45 239.21 118.45ZM239.27 115.21C240.61 115.21 241.65 114.56 242.39 113.26C243.15 111.94 243.53 110.07 243.53 107.65C243.53 105.23 243.15 103.37 242.39 102.07C241.65 100.75 240.61 100.09 239.27 100.09C237.93 100.09 236.88 100.75 236.12 102.07C235.38 103.37 235.01 105.23 235.01 107.65C235.01 110.07 235.38 111.94 236.12 113.26C236.88 114.56 237.93 115.21 239.27 115.21ZM257.579 118.45C256.379 118.45 255.299 118.21 254.339 117.73C253.379 117.23 252.559 116.51 251.879 115.57C251.199 114.63 250.679 113.5 250.319 112.18C249.979 110.86 249.809 109.38 249.809 107.74C249.809 106.04 249.989 104.52 250.349 103.18C250.729 101.84 251.269 100.7 251.969 99.76C252.669 98.82 253.509 98.1 254.489 97.6C255.469 97.1 256.559 96.85 257.759 96.85C258.979 96.85 260.059 97.1 260.999 97.6C261.959 98.1 262.769 98.82 263.429 99.76C264.089 100.7 264.589 101.83 264.929 103.15C265.289 104.45 265.469 105.92 265.469 107.56C265.469 109.24 265.289 110.75 264.929 112.09C264.569 113.43 264.039 114.58 263.339 115.54C262.659 116.48 261.829 117.2 260.849 117.7C259.889 118.2 258.799 118.45 257.579 118.45ZM257.639 115.21C258.979 115.21 260.019 114.56 260.759 113.26C261.519 111.94 261.899 110.07 261.899 107.65C261.899 105.23 261.519 103.37 260.759 102.07C260.019 100.75 258.979 100.09 257.639 100.09C256.299 100.09 255.249 100.75 254.489 102.07C253.749 103.37 253.379 105.23 253.379 107.65C253.379 110.07 253.749 111.94 254.489 113.26C255.249 114.56 256.299 115.21 257.639 115.21ZM270.052 118.12C269.632 118.12 269.252 118.02 268.912 117.82C268.572 117.62 268.292 117.35 268.072 117.01C267.872 116.65 267.772 116.26 267.772 115.84C267.772 115.42 267.872 115.04 268.072 114.7C268.292 114.34 268.572 114.06 268.912 113.86C269.252 113.66 269.632 113.56 270.052 113.56C270.472 113.56 270.852 113.66 271.192 113.86C271.532 114.06 271.802 114.34 272.002 114.7C272.222 115.04 272.332 115.42 272.332 115.84C272.332 116.26 272.222 116.65 272.002 117.01C271.802 117.35 271.532 117.62 271.192 117.82C270.852 118.02 270.472 118.12 270.052 118.12ZM282.393 118.45C281.193 118.45 280.113 118.21 279.153 117.73C278.193 117.23 277.373 116.51 276.693 115.57C276.013 114.63 275.493 113.5 275.133 112.18C274.793 110.86 274.623 109.38 274.623 107.74C274.623 106.04 274.803 104.52 275.163 103.18C275.543 101.84 276.083 100.7 276.783 99.76C277.483 98.82 278.323 98.1 279.303 97.6C280.283 97.1 281.373 96.85 282.573 96.85C283.793 96.85 284.873 97.1 285.813 97.6C286.773 98.1 287.583 98.82 288.243 99.76C288.903 100.7 289.403 101.83 289.743 103.15C290.103 104.45 290.283 105.92 290.283 107.56C290.283 109.24 290.103 110.75 289.743 112.09C289.383 113.43 288.853 114.58 288.153 115.54C287.473 116.48 286.643 117.2 285.663 117.7C284.703 118.2 283.613 118.45 282.393 118.45ZM282.453 115.21C283.793 115.21 284.833 114.56 285.573 113.26C286.333 111.94 286.713 110.07 286.713 107.65C286.713 105.23 286.333 103.37 285.573 102.07C284.833 100.75 283.793 100.09 282.453 100.09C281.113 100.09 280.063 100.75 279.303 102.07C278.563 103.37 278.193 105.23 278.193 107.65C278.193 110.07 278.563 111.94 279.303 113.26C280.063 114.56 281.113 115.21 282.453 115.21ZM300.763 118.45C299.563 118.45 298.483 118.21 297.523 117.73C296.563 117.23 295.743 116.51 295.063 115.57C294.383 114.63 293.863 113.5 293.503 112.18C293.163 110.86 292.993 109.38 292.993 107.74C292.993 106.04 293.173 104.52 293.533 103.18C293.913 101.84 294.453 100.7 295.153 99.76C295.853 98.82 296.693 98.1 297.673 97.6C298.653 97.1 299.743 96.85 300.943 96.85C302.163 96.85 303.243 97.1 304.183 97.6C305.143 98.1 305.953 98.82 306.613 99.76C307.273 100.7 307.773 101.83 308.113 103.15C308.473 104.45 308.653 105.92 308.653 107.56C308.653 109.24 308.473 110.75 308.113 112.09C307.753 113.43 307.223 114.58 306.523 115.54C305.843 116.48 305.013 117.2 304.033 117.7C303.073 118.2 301.983 118.45 300.763 118.45ZM300.823 115.21C302.163 115.21 303.203 114.56 303.943 113.26C304.703 111.94 305.083 110.07 305.083 107.65C305.083 105.23 304.703 103.37 303.943 102.07C303.203 100.75 302.163 100.09 300.823 100.09C299.483 100.09 298.433 100.75 297.673 102.07C296.933 103.37 296.563 105.23 296.563 107.65C296.563 110.07 296.933 111.94 297.673 113.26C298.433 114.56 299.483 115.21 300.823 115.21ZM319.132 118.45C317.932 118.45 316.852 118.21 315.892 117.73C314.932 117.23 314.112 116.51 313.432 115.57C312.752 114.63 312.232 113.5 311.872 112.18C311.532 110.86 311.362 109.38 311.362 107.74C311.362 106.04 311.542 104.52 311.902 103.18C312.282 101.84 312.822 100.7 313.522 99.76C314.222 98.82 315.062 98.1 316.042 97.6C317.022 97.1 318.112 96.85 319.312 96.85C320.532 96.85 321.612 97.1 322.552 97.6C323.512 98.1 324.322 98.82 324.982 99.76C325.642 100.7 326.142 101.83 326.482 103.15C326.842 104.45 327.022 105.92 327.022 107.56C327.022 109.24 326.842 110.75 326.482 112.09C326.122 113.43 325.592 114.58 324.892 115.54C324.212 116.48 323.382 117.2 322.402 117.7C321.442 118.2 320.352 118.45 319.132 118.45ZM319.192 115.21C320.532 115.21 321.572 114.56 322.312 113.26C323.072 111.94 323.452 110.07 323.452 107.65C323.452 105.23 323.072 103.37 322.312 102.07C321.572 100.75 320.532 100.09 319.192 100.09C317.852 100.09 316.802 100.75 316.042 102.07C315.302 103.37 314.932 105.23 314.932 107.65C314.932 110.07 315.302 111.94 316.042 113.26C316.802 114.56 317.852 115.21 319.192 115.21Z" fill="black"/>
<path d="M46.765 79V69.985H43.66V68.35H51.7V69.985H48.595V79H46.765ZM53.2904 79V67.84H55.0154V72.1C55.2554 71.74 55.5754 71.455 55.9754 71.245C56.3754 71.035 56.8254 70.93 57.3254 70.93C57.9154 70.93 58.4254 71.07 58.8554 71.35C59.2954 71.63 59.6354 72.025 59.8754 72.535C60.1154 73.045 60.2354 73.645 60.2354 74.335V79H58.5104V74.53C58.5104 73.89 58.3654 73.39 58.0754 73.03C57.7954 72.67 57.4004 72.49 56.8904 72.49C56.5304 72.49 56.2054 72.575 55.9154 72.745C55.6354 72.915 55.4154 73.145 55.2554 73.435C55.0954 73.725 55.0154 74.06 55.0154 74.44V79H53.2904ZM63.9991 68.965C63.9991 69.155 63.9491 69.33 63.8491 69.49C63.7591 69.65 63.6341 69.78 63.4741 69.88C63.3141 69.97 63.1391 70.015 62.9491 70.015C62.7591 70.015 62.5841 69.97 62.4241 69.88C62.2641 69.78 62.1341 69.65 62.0341 69.49C61.9441 69.33 61.8991 69.155 61.8991 68.965C61.8991 68.775 61.9441 68.6 62.0341 68.44C62.1341 68.28 62.2641 68.155 62.4241 68.065C62.5841 67.965 62.7591 67.915 62.9491 67.915C63.1391 67.915 63.3141 67.965 63.4741 68.065C63.6341 68.155 63.7591 68.28 63.8491 68.44C63.9491 68.6 63.9991 68.775 63.9991 68.965ZM62.0941 79V71.155H63.8191V79H62.0941ZM68.3679 79.225C67.8579 79.225 67.3829 79.14 66.9429 78.97C66.5129 78.8 66.1429 78.56 65.8329 78.25C65.5329 77.93 65.3179 77.555 65.1879 77.125L66.7479 76.72C66.8779 77.06 67.0879 77.325 67.3779 77.515C67.6679 77.705 68.0029 77.8 68.3829 77.8C68.7729 77.8 69.0929 77.71 69.3429 77.53C69.5929 77.34 69.7179 77.1 69.7179 76.81C69.7179 76.56 69.6179 76.35 69.4179 76.18C69.2179 76.01 68.8929 75.885 68.4429 75.805L67.9479 75.715C67.1079 75.565 66.4729 75.295 66.0429 74.905C65.6229 74.515 65.4129 74.015 65.4129 73.405C65.4129 72.915 65.5379 72.485 65.7879 72.115C66.0379 71.745 66.3829 71.455 66.8229 71.245C67.2629 71.035 67.7679 70.93 68.3379 70.93C68.8279 70.93 69.2779 71.015 69.6879 71.185C70.0979 71.355 70.4429 71.595 70.7229 71.905C71.0029 72.215 71.2029 72.58 71.3229 73L69.7779 73.375C69.6579 73.055 69.4679 72.805 69.2079 72.625C68.9579 72.435 68.6629 72.34 68.3229 72.34C67.9729 72.34 67.6829 72.43 67.4529 72.61C67.2229 72.78 67.1079 73 67.1079 73.27C67.1079 73.5 67.2079 73.69 67.4079 73.84C67.6179 73.99 67.9679 74.11 68.4579 74.2L68.9529 74.29C69.7529 74.43 70.3679 74.705 70.7979 75.115C71.2279 75.525 71.4429 76.035 71.4429 76.645C71.4429 77.015 71.3679 77.36 71.2179 77.68C71.0679 77.99 70.8529 78.265 70.5729 78.505C70.3029 78.735 69.9779 78.91 69.5979 79.03C69.2279 79.16 68.8179 79.225 68.3679 79.225ZM79.069 79V74.8L75.334 68.35H77.404L80.014 73.12L82.609 68.35H84.634L80.899 74.8V79H79.069ZM88.1365 79.225C87.5565 79.225 87.0215 79.125 86.5315 78.925C86.0515 78.715 85.6315 78.425 85.2715 78.055C84.9115 77.685 84.6315 77.25 84.4315 76.75C84.2415 76.24 84.1465 75.68 84.1465 75.07C84.1465 74.48 84.2415 73.935 84.4315 73.435C84.6315 72.935 84.9015 72.5 85.2415 72.13C85.5915 71.75 86.0015 71.455 86.4715 71.245C86.9415 71.035 87.4515 70.93 88.0015 70.93C88.5515 70.93 89.0515 71.03 89.5015 71.23C89.9615 71.42 90.3565 71.695 90.6865 72.055C91.0265 72.415 91.2865 72.845 91.4665 73.345C91.6465 73.835 91.7365 74.38 91.7365 74.98V75.49H85.9315C85.9815 75.95 86.1015 76.35 86.2915 76.69C86.4915 77.02 86.7465 77.275 87.0565 77.455C87.3665 77.635 87.7265 77.725 88.1365 77.725C88.9565 77.725 89.5965 77.36 90.0565 76.63L91.5715 77.215C91.3915 77.625 91.1265 77.985 90.7765 78.295C90.4365 78.595 90.0365 78.825 89.5765 78.985C89.1265 79.145 88.6465 79.225 88.1365 79.225ZM88.0015 72.325C87.6515 72.325 87.3365 72.405 87.0565 72.565C86.7865 72.725 86.5565 72.95 86.3665 73.24C86.1765 73.53 86.0465 73.87 85.9765 74.26H89.9365C89.8765 73.87 89.7615 73.53 89.5915 73.24C89.4215 72.95 89.1965 72.725 88.9165 72.565C88.6465 72.405 88.3415 72.325 88.0015 72.325ZM95.6073 79.225C95.2073 79.225 94.8373 79.165 94.4973 79.045C94.1673 78.925 93.8773 78.755 93.6273 78.535C93.3773 78.315 93.1823 78.055 93.0423 77.755C92.9023 77.455 92.8323 77.125 92.8323 76.765C92.8323 76.265 92.9623 75.83 93.2223 75.46C93.4923 75.08 93.8673 74.785 94.3473 74.575C94.8273 74.365 95.3873 74.26 96.0273 74.26C96.3773 74.26 96.7123 74.295 97.0323 74.365C97.3523 74.425 97.6573 74.515 97.9473 74.635V74.14C97.9473 73.79 97.8823 73.485 97.7523 73.225C97.6223 72.955 97.4373 72.745 97.1973 72.595C96.9573 72.445 96.6673 72.37 96.3273 72.37C95.9673 72.37 95.6423 72.465 95.3523 72.655C95.0623 72.845 94.8473 73.11 94.7073 73.45L93.1173 73.09C93.2373 72.65 93.4523 72.27 93.7623 71.95C94.0823 71.63 94.4623 71.38 94.9023 71.2C95.3523 71.02 95.8373 70.93 96.3573 70.93C96.8473 70.93 97.2923 71.01 97.6923 71.17C98.1023 71.33 98.4523 71.555 98.7423 71.845C99.0323 72.135 99.2573 72.48 99.4173 72.88C99.5773 73.28 99.6573 73.725 99.6573 74.215V79H98.0823L98.0223 77.965C97.8123 78.345 97.4973 78.65 97.0773 78.88C96.6573 79.11 96.1673 79.225 95.6073 79.225ZM94.5723 76.69C94.5723 76.91 94.6323 77.11 94.7523 77.29C94.8723 77.46 95.0373 77.595 95.2473 77.695C95.4673 77.795 95.7223 77.845 96.0123 77.845C96.3823 77.845 96.7123 77.765 97.0023 77.605C97.2923 77.445 97.5223 77.23 97.6923 76.96C97.8623 76.68 97.9473 76.365 97.9473 76.015V75.835C97.6873 75.725 97.4173 75.64 97.1373 75.58C96.8673 75.51 96.5873 75.475 96.2973 75.475C95.7773 75.475 95.3573 75.585 95.0373 75.805C94.7273 76.025 94.5723 76.32 94.5723 76.69ZM101.513 79V71.155H103.088L103.163 72.445C103.363 72.005 103.638 71.665 103.988 71.425C104.348 71.175 104.768 71.05 105.248 71.05C105.398 71.05 105.543 71.06 105.683 71.08C105.823 71.1 105.948 71.135 106.058 71.185L105.863 72.865C105.753 72.825 105.638 72.8 105.518 72.79C105.398 72.77 105.278 72.76 105.158 72.76C104.558 72.76 104.088 72.96 103.748 73.36C103.408 73.76 103.238 74.315 103.238 75.025V79H101.513ZM108.298 68.29C108.548 68.29 108.778 68.37 108.988 68.53C109.198 68.69 109.363 68.905 109.483 69.175C109.613 69.445 109.678 69.745 109.678 70.075C109.678 70.465 109.593 70.83 109.423 71.17C109.263 71.51 109.033 71.805 108.733 72.055C108.433 72.305 108.078 72.5 107.668 72.64L107.323 71.71C107.703 71.57 108.003 71.37 108.223 71.11C108.453 70.84 108.568 70.555 108.568 70.255C108.568 70.135 108.558 70.03 108.538 69.94C108.428 70.02 108.303 70.06 108.163 70.06C108.003 70.06 107.858 70.025 107.728 69.955C107.608 69.875 107.508 69.77 107.428 69.64C107.348 69.5 107.308 69.35 107.308 69.19C107.308 69.03 107.353 68.88 107.443 68.74C107.533 68.6 107.653 68.49 107.803 68.41C107.953 68.33 108.118 68.29 108.298 68.29ZM113.558 79.225C113.048 79.225 112.573 79.14 112.133 78.97C111.703 78.8 111.333 78.56 111.023 78.25C110.723 77.93 110.508 77.555 110.378 77.125L111.938 76.72C112.068 77.06 112.278 77.325 112.568 77.515C112.858 77.705 113.193 77.8 113.573 77.8C113.963 77.8 114.283 77.71 114.533 77.53C114.783 77.34 114.908 77.1 114.908 76.81C114.908 76.56 114.808 76.35 114.608 76.18C114.408 76.01 114.083 75.885 113.633 75.805L113.138 75.715C112.298 75.565 111.663 75.295 111.233 74.905C110.813 74.515 110.603 74.015 110.603 73.405C110.603 72.915 110.728 72.485 110.978 72.115C111.228 71.745 111.573 71.455 112.013 71.245C112.453 71.035 112.958 70.93 113.528 70.93C114.018 70.93 114.468 71.015 114.878 71.185C115.288 71.355 115.633 71.595 115.913 71.905C116.193 72.215 116.393 72.58 116.513 73L114.968 73.375C114.848 73.055 114.658 72.805 114.398 72.625C114.148 72.435 113.853 72.34 113.513 72.34C113.163 72.34 112.873 72.43 112.643 72.61C112.413 72.78 112.298 73 112.298 73.27C112.298 73.5 112.398 73.69 112.598 73.84C112.808 73.99 113.158 74.11 113.648 74.2L114.143 74.29C114.943 74.43 115.558 74.705 115.988 75.115C116.418 75.525 116.633 76.035 116.633 76.645C116.633 77.015 116.558 77.36 116.408 77.68C116.258 77.99 116.043 78.265 115.763 78.505C115.493 78.735 115.168 78.91 114.788 79.03C114.418 79.16 114.008 79.225 113.558 79.225ZM121.364 79V68.35H123.194V79H121.364ZM125.17 79V71.155H126.745L126.805 72.235C127.035 71.835 127.355 71.52 127.765 71.29C128.185 71.05 128.665 70.93 129.205 70.93C129.795 70.93 130.305 71.07 130.735 71.35C131.175 71.63 131.515 72.025 131.755 72.535C131.995 73.045 132.115 73.645 132.115 74.335V79H130.39V74.53C130.39 73.89 130.245 73.39 129.955 73.03C129.675 72.67 129.28 72.49 128.77 72.49C128.41 72.49 128.085 72.575 127.795 72.745C127.515 72.915 127.295 73.145 127.135 73.435C126.975 73.725 126.895 74.06 126.895 74.44V79H125.17ZM137.514 79.225C136.954 79.225 136.439 79.125 135.969 78.925C135.499 78.715 135.089 78.43 134.739 78.07C134.389 77.7 134.114 77.265 133.914 76.765C133.724 76.265 133.629 75.72 133.629 75.13C133.629 74.54 133.729 73.99 133.929 73.48C134.129 72.97 134.404 72.525 134.754 72.145C135.104 71.765 135.514 71.47 135.984 71.26C136.464 71.04 136.984 70.93 137.544 70.93C138.084 70.93 138.579 71.03 139.029 71.23C139.479 71.42 139.864 71.695 140.184 72.055C140.514 72.405 140.749 72.82 140.889 73.3L139.254 73.69C139.084 73.31 138.844 73.015 138.534 72.805C138.234 72.595 137.894 72.49 137.514 72.49C137.114 72.49 136.754 72.605 136.434 72.835C136.114 73.065 135.859 73.38 135.669 73.78C135.489 74.17 135.399 74.615 135.399 75.115C135.399 75.605 135.489 76.045 135.669 76.435C135.849 76.815 136.094 77.115 136.404 77.335C136.724 77.555 137.094 77.665 137.514 77.665C137.914 77.665 138.279 77.565 138.609 77.365C138.939 77.155 139.184 76.86 139.344 76.48L140.964 76.855C140.824 77.335 140.584 77.755 140.244 78.115C139.904 78.465 139.499 78.74 139.029 78.94C138.559 79.13 138.054 79.225 137.514 79.225ZM145.969 79.225C145.399 79.225 144.869 79.125 144.379 78.925C143.899 78.715 143.479 78.425 143.119 78.055C142.759 77.675 142.479 77.235 142.279 76.735C142.079 76.225 141.979 75.67 141.979 75.07C141.979 74.48 142.079 73.935 142.279 73.435C142.479 72.925 142.759 72.485 143.119 72.115C143.489 71.735 143.919 71.445 144.409 71.245C144.909 71.035 145.449 70.93 146.029 70.93C146.599 70.93 147.124 71.035 147.604 71.245C148.094 71.445 148.519 71.735 148.879 72.115C149.239 72.485 149.519 72.92 149.719 73.42C149.919 73.92 150.019 74.47 150.019 75.07C150.019 75.67 149.919 76.225 149.719 76.735C149.519 77.235 149.234 77.675 148.864 78.055C148.504 78.425 148.074 78.715 147.574 78.925C147.084 79.125 146.549 79.225 145.969 79.225ZM145.999 77.665C146.429 77.665 146.814 77.555 147.154 77.335C147.494 77.105 147.759 76.795 147.949 76.405C148.149 76.015 148.249 75.57 148.249 75.07C148.249 74.57 148.149 74.13 147.949 73.75C147.759 73.36 147.494 73.055 147.154 72.835C146.814 72.605 146.429 72.49 145.999 72.49C145.569 72.49 145.184 72.605 144.844 72.835C144.504 73.055 144.234 73.36 144.034 73.75C143.844 74.13 143.749 74.57 143.749 75.07C143.749 75.57 143.844 76.015 144.034 76.405C144.234 76.795 144.504 77.105 144.844 77.335C145.184 77.555 145.569 77.665 145.999 77.665ZM151.537 79V71.155H153.112L153.172 72.205C153.402 71.815 153.717 71.505 154.117 71.275C154.517 71.045 154.972 70.93 155.482 70.93C156.032 70.93 156.517 71.07 156.937 71.35C157.357 71.62 157.682 71.995 157.912 72.475C158.062 72.165 158.262 71.895 158.512 71.665C158.772 71.435 159.072 71.255 159.412 71.125C159.762 70.995 160.137 70.93 160.537 70.93C161.117 70.93 161.622 71.07 162.052 71.35C162.482 71.62 162.812 72.01 163.042 72.52C163.282 73.02 163.402 73.62 163.402 74.32V79H161.677V74.515C161.677 73.865 161.537 73.365 161.257 73.015C160.977 72.665 160.592 72.49 160.102 72.49C159.762 72.49 159.457 72.575 159.187 72.745C158.927 72.905 158.717 73.135 158.557 73.435C158.407 73.725 158.332 74.055 158.332 74.425V79H156.607V74.515C156.607 73.865 156.467 73.365 156.187 73.015C155.907 72.665 155.522 72.49 155.032 72.49C154.692 72.49 154.387 72.575 154.117 72.745C153.857 72.905 153.647 73.135 153.487 73.435C153.337 73.725 153.262 74.055 153.262 74.425V79H151.537ZM168.908 79.225C168.328 79.225 167.793 79.125 167.303 78.925C166.823 78.715 166.403 78.425 166.043 78.055C165.683 77.685 165.403 77.25 165.203 76.75C165.013 76.24 164.918 75.68 164.918 75.07C164.918 74.48 165.013 73.935 165.203 73.435C165.403 72.935 165.673 72.5 166.013 72.13C166.363 71.75 166.773 71.455 167.243 71.245C167.713 71.035 168.223 70.93 168.773 70.93C169.323 70.93 169.823 71.03 170.273 71.23C170.733 71.42 171.128 71.695 171.458 72.055C171.798 72.415 172.058 72.845 172.238 73.345C172.418 73.835 172.508 74.38 172.508 74.98V75.49H166.703C166.753 75.95 166.873 76.35 167.063 76.69C167.263 77.02 167.518 77.275 167.828 77.455C168.138 77.635 168.498 77.725 168.908 77.725C169.728 77.725 170.368 77.36 170.828 76.63L172.343 77.215C172.163 77.625 171.898 77.985 171.548 78.295C171.208 78.595 170.808 78.825 170.348 78.985C169.898 79.145 169.418 79.225 168.908 79.225ZM168.773 72.325C168.423 72.325 168.108 72.405 167.828 72.565C167.558 72.725 167.328 72.95 167.138 73.24C166.948 73.53 166.818 73.87 166.748 74.26H170.708C170.648 73.87 170.533 73.53 170.363 73.24C170.193 72.95 169.968 72.725 169.688 72.565C169.418 72.405 169.113 72.325 168.773 72.325Z" fill="black"/>
<path d="M46.245 146.595V145.14H48.705V142.65H50.205V145.14H52.665V146.595H50.205V149.175H48.705V146.595H46.245ZM57.0563 150V141.555L54.8063 142.815L54.1913 141.36L57.3263 139.65H58.7963V150H57.0563ZM64.9262 150.225C64.3262 150.225 63.7862 150.105 63.3062 149.865C62.8262 149.615 62.4162 149.255 62.0762 148.785C61.7362 148.315 61.4762 147.75 61.2962 147.09C61.1262 146.43 61.0412 145.69 61.0412 144.87C61.0412 144.02 61.1312 143.26 61.3112 142.59C61.5012 141.92 61.7712 141.35 62.1212 140.88C62.4712 140.41 62.8912 140.05 63.3812 139.8C63.8712 139.55 64.4162 139.425 65.0162 139.425C65.6262 139.425 66.1662 139.55 66.6362 139.8C67.1162 140.05 67.5212 140.41 67.8512 140.88C68.1812 141.35 68.4312 141.915 68.6012 142.575C68.7812 143.225 68.8712 143.96 68.8712 144.78C68.8712 145.62 68.7812 146.375 68.6012 147.045C68.4212 147.715 68.1562 148.29 67.8062 148.77C67.4662 149.24 67.0512 149.6 66.5612 149.85C66.0812 150.1 65.5362 150.225 64.9262 150.225ZM64.9562 148.605C65.6262 148.605 66.1462 148.28 66.5162 147.63C66.8962 146.97 67.0862 146.035 67.0862 144.825C67.0862 143.615 66.8962 142.685 66.5162 142.035C66.1462 141.375 65.6262 141.045 64.9562 141.045C64.2862 141.045 63.7612 141.375 63.3812 142.035C63.0112 142.685 62.8262 143.615 62.8262 144.825C62.8262 146.035 63.0112 146.97 63.3812 147.63C63.7612 148.28 64.2862 148.605 64.9562 148.605ZM72.4158 144.195C71.9658 144.195 71.5658 144.095 71.2158 143.895C70.8658 143.695 70.5858 143.42 70.3758 143.07C70.1758 142.72 70.0758 142.32 70.0758 141.87C70.0758 141.42 70.1758 141.02 70.3758 140.67C70.5858 140.31 70.8708 140.03 71.2308 139.83C71.5908 139.62 71.9958 139.515 72.4458 139.515C72.8958 139.515 73.2958 139.62 73.6458 139.83C73.9958 140.03 74.2708 140.305 74.4708 140.655C74.6808 141.005 74.7858 141.405 74.7858 141.855C74.7858 142.305 74.6808 142.705 74.4708 143.055C74.2708 143.405 73.9908 143.685 73.6308 143.895C73.2708 144.095 72.8658 144.195 72.4158 144.195ZM72.6108 150H71.1708L77.6358 139.65H79.0758L72.6108 150ZM71.4108 141.855C71.4108 142.085 71.4558 142.29 71.5458 142.47C71.6358 142.64 71.7558 142.775 71.9058 142.875C72.0558 142.975 72.2308 143.025 72.4308 143.025C72.6308 143.025 72.8058 142.975 72.9558 142.875C73.1058 142.775 73.2258 142.64 73.3158 142.47C73.4058 142.29 73.4508 142.085 73.4508 141.855C73.4508 141.625 73.4058 141.425 73.3158 141.255C73.2258 141.075 73.1058 140.935 72.9558 140.835C72.8058 140.735 72.6308 140.685 72.4308 140.685C72.2308 140.685 72.0558 140.735 71.9058 140.835C71.7558 140.935 71.6358 141.075 71.5458 141.255C71.4558 141.425 71.4108 141.625 71.4108 141.855ZM77.8008 150.135C77.3608 150.135 76.9608 150.035 76.6008 149.835C76.2508 149.635 75.9708 149.36 75.7608 149.01C75.5608 148.66 75.4608 148.26 75.4608 147.81C75.4608 147.36 75.5608 146.96 75.7608 146.61C75.9708 146.25 76.2508 145.97 76.6008 145.77C76.9608 145.56 77.3708 145.455 77.8308 145.455C78.2708 145.455 78.6658 145.56 79.0158 145.77C79.3758 145.97 79.6558 146.245 79.8558 146.595C80.0658 146.945 80.1708 147.345 80.1708 147.795C80.1708 148.245 80.0658 148.645 79.8558 148.995C79.6558 149.345 79.3758 149.625 79.0158 149.835C78.6658 150.035 78.2608 150.135 77.8008 150.135ZM77.8158 148.965C78.0058 148.965 78.1758 148.915 78.3258 148.815C78.4858 148.715 78.6108 148.58 78.7008 148.41C78.7908 148.23 78.8358 148.025 78.8358 147.795C78.8358 147.565 78.7908 147.365 78.7008 147.195C78.6108 147.015 78.4858 146.875 78.3258 146.775C78.1758 146.675 78.0058 146.625 77.8158 146.625C77.6258 146.625 77.4508 146.675 77.2908 146.775C77.1408 146.875 77.0208 147.015 76.9308 147.195C76.8408 147.365 76.7958 147.565 76.7958 147.795C76.7958 148.025 76.8408 148.23 76.9308 148.41C77.0208 148.58 77.1408 148.715 77.2908 148.815C77.4508 148.915 77.6258 148.965 77.8158 148.965ZM84.9416 150V139.35H86.7716V148.365H91.2866V150H84.9416ZM95.205 150.225C94.805 150.225 94.435 150.165 94.095 150.045C93.765 149.925 93.475 149.755 93.225 149.535C92.975 149.315 92.78 149.055 92.64 148.755C92.5 148.455 92.43 148.125 92.43 147.765C92.43 147.265 92.56 146.83 92.82 146.46C93.09 146.08 93.465 145.785 93.945 145.575C94.425 145.365 94.985 145.26 95.625 145.26C95.975 145.26 96.31 145.295 96.63 145.365C96.95 145.425 97.255 145.515 97.545 145.635V145.14C97.545 144.79 97.48 144.485 97.35 144.225C97.22 143.955 97.035 143.745 96.795 143.595C96.555 143.445 96.265 143.37 95.925 143.37C95.565 143.37 95.24 143.465 94.95 143.655C94.66 143.845 94.445 144.11 94.305 144.45L92.715 144.09C92.835 143.65 93.05 143.27 93.36 142.95C93.68 142.63 94.06 142.38 94.5 142.2C94.95 142.02 95.435 141.93 95.955 141.93C96.445 141.93 96.89 142.01 97.29 142.17C97.7 142.33 98.05 142.555 98.34 142.845C98.63 143.135 98.855 143.48 99.015 143.88C99.175 144.28 99.255 144.725 99.255 145.215V150H97.68L97.62 148.965C97.41 149.345 97.095 149.65 96.675 149.88C96.255 150.11 95.765 150.225 95.205 150.225ZM94.17 147.69C94.17 147.91 94.23 148.11 94.35 148.29C94.47 148.46 94.635 148.595 94.845 148.695C95.065 148.795 95.32 148.845 95.61 148.845C95.98 148.845 96.31 148.765 96.6 148.605C96.89 148.445 97.12 148.23 97.29 147.96C97.46 147.68 97.545 147.365 97.545 147.015V146.835C97.285 146.725 97.015 146.64 96.735 146.58C96.465 146.51 96.185 146.475 95.895 146.475C95.375 146.475 94.955 146.585 94.635 146.805C94.325 147.025 94.17 147.32 94.17 147.69ZM103.796 150.225C103.286 150.225 102.811 150.14 102.371 149.97C101.941 149.8 101.571 149.56 101.261 149.25C100.961 148.93 100.746 148.555 100.616 148.125L102.176 147.72C102.306 148.06 102.516 148.325 102.806 148.515C103.096 148.705 103.431 148.8 103.811 148.8C104.201 148.8 104.521 148.71 104.771 148.53C105.021 148.34 105.146 148.1 105.146 147.81C105.146 147.56 105.046 147.35 104.846 147.18C104.646 147.01 104.321 146.885 103.871 146.805L103.376 146.715C102.536 146.565 101.901 146.295 101.471 145.905C101.051 145.515 100.841 145.015 100.841 144.405C100.841 143.915 100.966 143.485 101.216 143.115C101.466 142.745 101.811 142.455 102.251 142.245C102.691 142.035 103.196 141.93 103.766 141.93C104.256 141.93 104.706 142.015 105.116 142.185C105.526 142.355 105.871 142.595 106.151 142.905C106.431 143.215 106.631 143.58 106.751 144L105.206 144.375C105.086 144.055 104.896 143.805 104.636 143.625C104.386 143.435 104.091 143.34 103.751 143.34C103.401 143.34 103.111 143.43 102.881 143.61C102.651 143.78 102.536 144 102.536 144.27C102.536 144.5 102.636 144.69 102.836 144.84C103.046 144.99 103.396 145.11 103.886 145.2L104.381 145.29C105.181 145.43 105.796 145.705 106.226 146.115C106.656 146.525 106.871 147.035 106.871 147.645C106.871 148.015 106.796 148.36 106.646 148.68C106.496 148.99 106.281 149.265 106.001 149.505C105.731 149.735 105.406 149.91 105.026 150.03C104.656 150.16 104.246 150.225 103.796 150.225ZM111.441 150.225C110.651 150.225 110.031 150 109.581 149.55C109.131 149.09 108.906 148.435 108.906 147.585V143.55H107.526V142.155H108.906V139.5H110.631V142.155H112.911V143.55H110.631V147.405C110.631 147.825 110.716 148.15 110.886 148.38C111.066 148.6 111.326 148.71 111.666 148.71C111.846 148.71 112.041 148.685 112.251 148.635C112.461 148.575 112.656 148.495 112.836 148.395L113.226 149.7C112.996 149.86 112.726 149.985 112.416 150.075C112.116 150.175 111.791 150.225 111.441 150.225ZM120.796 150V145.8L117.061 139.35H119.131L121.741 144.12L124.336 139.35H126.361L122.626 145.8V150H120.796ZM129.863 150.225C129.283 150.225 128.748 150.125 128.258 149.925C127.778 149.715 127.358 149.425 126.998 149.055C126.638 148.685 126.358 148.25 126.158 147.75C125.968 147.24 125.873 146.68 125.873 146.07C125.873 145.48 125.968 144.935 126.158 144.435C126.358 143.935 126.628 143.5 126.968 143.13C127.318 142.75 127.728 142.455 128.198 142.245C128.668 142.035 129.178 141.93 129.728 141.93C130.278 141.93 130.778 142.03 131.228 142.23C131.688 142.42 132.083 142.695 132.413 143.055C132.753 143.415 133.013 143.845 133.193 144.345C133.373 144.835 133.463 145.38 133.463 145.98V146.49H127.658C127.708 146.95 127.828 147.35 128.018 147.69C128.218 148.02 128.473 148.275 128.783 148.455C129.093 148.635 129.453 148.725 129.863 148.725C130.683 148.725 131.323 148.36 131.783 147.63L133.298 148.215C133.118 148.625 132.853 148.985 132.503 149.295C132.163 149.595 131.763 149.825 131.303 149.985C130.853 150.145 130.373 150.225 129.863 150.225ZM129.728 143.325C129.378 143.325 129.063 143.405 128.783 143.565C128.513 143.725 128.283 143.95 128.093 144.24C127.903 144.53 127.773 144.87 127.703 145.26H131.663C131.603 144.87 131.488 144.53 131.318 144.24C131.148 143.95 130.923 143.725 130.643 143.565C130.373 143.405 130.068 143.325 129.728 143.325ZM137.334 150.225C136.934 150.225 136.564 150.165 136.224 150.045C135.894 149.925 135.604 149.755 135.354 149.535C135.104 149.315 134.909 149.055 134.769 148.755C134.629 148.455 134.559 148.125 134.559 147.765C134.559 147.265 134.689 146.83 134.949 146.46C135.219 146.08 135.594 145.785 136.074 145.575C136.554 145.365 137.114 145.26 137.754 145.26C138.104 145.26 138.439 145.295 138.759 145.365C139.079 145.425 139.384 145.515 139.674 145.635V145.14C139.674 144.79 139.609 144.485 139.479 144.225C139.349 143.955 139.164 143.745 138.924 143.595C138.684 143.445 138.394 143.37 138.054 143.37C137.694 143.37 137.369 143.465 137.079 143.655C136.789 143.845 136.574 144.11 136.434 144.45L134.844 144.09C134.964 143.65 135.179 143.27 135.489 142.95C135.809 142.63 136.189 142.38 136.629 142.2C137.079 142.02 137.564 141.93 138.084 141.93C138.574 141.93 139.019 142.01 139.419 142.17C139.829 142.33 140.179 142.555 140.469 142.845C140.759 143.135 140.984 143.48 141.144 143.88C141.304 144.28 141.384 144.725 141.384 145.215V150H139.809L139.749 148.965C139.539 149.345 139.224 149.65 138.804 149.88C138.384 150.11 137.894 150.225 137.334 150.225ZM136.299 147.69C136.299 147.91 136.359 148.11 136.479 148.29C136.599 148.46 136.764 148.595 136.974 148.695C137.194 148.795 137.449 148.845 137.739 148.845C138.109 148.845 138.439 148.765 138.729 148.605C139.019 148.445 139.249 148.23 139.419 147.96C139.589 147.68 139.674 147.365 139.674 147.015V146.835C139.414 146.725 139.144 146.64 138.864 146.58C138.594 146.51 138.314 146.475 138.024 146.475C137.504 146.475 137.084 146.585 136.764 146.805C136.454 147.025 136.299 147.32 136.299 147.69ZM143.24 150V142.155H144.815L144.89 143.445C145.09 143.005 145.365 142.665 145.715 142.425C146.075 142.175 146.495 142.05 146.975 142.05C147.125 142.05 147.27 142.06 147.41 142.08C147.55 142.1 147.675 142.135 147.785 142.185L147.59 143.865C147.48 143.825 147.365 143.8 147.245 143.79C147.125 143.77 147.005 143.76 146.885 143.76C146.285 143.76 145.815 143.96 145.475 144.36C145.135 144.76 144.965 145.315 144.965 146.025V150H143.24Z" fill="black"/>
<defs>
<filter id="filter0_d" x="0" y="0" width="422" height="238" filterUnits="userSpaceOnUse" color-interpolation-filters="sRGB">
<feFlood flood-opacity="0" result="BackgroundImageFix"/>
<feColorMatrix in="SourceAlpha" type="matrix" values="0 0 0 0 0 0 0 0 0 0 0 0 0 0 0 0 0 0 127 0" result="hardAlpha"/>
<feOffset dx="10" dy="15"/>
<feGaussianBlur stdDeviation="5"/>
<feColorMatrix type="matrix" values="0 0 0 0 0.945098 0 0 0 0 0.788235 0 0 0 0 0.92549 0 0 0 0.25 0"/>
<feBlend mode="normal" in2="BackgroundImageFix" result="effect1_dropShadow"/>
<feBlend mode="normal" in="SourceGraphic" in2="effect1_dropShadow" result="shape"/>
</filter>
<linearGradient id="paint0_linear" x1="338" y1="249" x2="-182" y2="106" gradientUnits="userSpaceOnUse">
<stop offset="0.150683" stop-color="#AB84C8"/>
<stop offset="1" stop-color="#F1C9EC" stop-opacity="0"/>
</linearGradient>
</defs>
</svg>
